BoldWide.ufo
<glyph name="exclam" format="1">
  <advance width="490"/>
  <unicode hex="0021"/>
  <outline>
    <contour>
      <point x="396" y="709" type="line"/>
      <point x="93" y="709" type="line"/>
      <point x="141" y="257" type="line"/>
      <point x="348" y="257" type="line"/>
    </contour>
    <contour>
      <point x="117" y="177" type="line"/>
      <point x="117" y="0" type="line"/>
      <point x="372" y="0" type="line"/>
      <point x="372" y="177" type="line"/>
    </contour>
  </outline>
</glyph>
<glyph name="numbersign" format="1">
  <advance width="1097"/>
  <unicode hex="0023"/>
  <outline>
    <contour>
      <point x="561" y="175" type="line"/>
      <point x="490" y="0" type="line"/>
      <point x="640" y="0" type="line"/>
      <point x="711" y="175" type="line"/>
      <point x="900" y="175" type="line"/>
      <point x="953" y="303" type="line"/>
      <point x="763" y="303" type="line"/>
      <point x="804" y="404" type="line"/>
      <point x="993" y="404" type="line"/>
      <point x="1045" y="532" type="line"/>
      <point x="856" y="532" type="line"/>
      <point x="927" y="705" type="line"/>
      <point x="777" y="705" type="line"/>
      <point x="706" y="532" type="line"/>
      <point x="536" y="532" type="line"/>
      <point x="607" y="705" type="line"/>
      <point x="457" y="705" type="line"/>
      <point x="386" y="532" type="line"/>
      <point x="197" y="532" type="line"/>
      <point x="145" y="404" type="line"/>
      <point x="334" y="404" type="line"/>
      <point x="293" y="303" type="line"/>
      <point x="105" y="303" type="line"/>
      <point x="52" y="175" type="line"/>
      <point x="241" y="175" type="line"/>
      <point x="170" y="0" type="line"/>
      <point x="320" y="0" type="line"/>
      <point x="391" y="175" type="line"/>
    </contour>
    <contour>
      <point x="613" y="303" type="line"/>
      <point x="443" y="303" type="line"/>
      <point x="484" y="404" type="line"/>
      <point x="654" y="404" type="line"/>
    </contour>
  </outline>
</glyph>
<glyph name="dollar" format="1">
  <advance width="1063"/>
  <unicode hex="0024"/>
  <outline>
    <contour>
      <point x="626" y="519" type="line"/>
      <point x="659" y="518"/>
      <point x="685" y="496"/>
      <point x="699" y="481" type="curve"/>
      <point x="974" y="486" type="line"/>
      <point x="924" y="630"/>
      <point x="751" y="674"/>
      <point x="626" y="677" type="curve"/>
      <point x="626" y="753" type="line"/>
      <point x="459" y="753" type="line"/>
      <point x="459" y="677" type="line"/>
      <point x="168" y="674"/>
      <point x="95" y="564"/>
      <point x="95" y="465" type="curve" smooth="yes"/>
      <point x="95" y="278"/>
      <point x="318" y="251"/>
      <point x="459" y="241" type="curve"/>
      <point x="459" y="172" type="line"/>
      <point x="400" y="172"/>
      <point x="368" y="190"/>
      <point x="343" y="217" type="curve"/>
      <point x="64" y="208" type="line"/>
      <point x="101" y="88"/>
      <point x="225" y="13"/>
      <point x="459" y="13" type="curve"/>
      <point x="459" y="-69" type="line"/>
      <point x="626" y="-69" type="line"/>
      <point x="626" y="13" type="line"/>
      <point x="906" y="22"/>
      <point x="999" y="137"/>
      <point x="999" y="246" type="curve" smooth="yes"/>
      <point x="999" y="418"/>
      <point x="764" y="443"/>
      <point x="626" y="455" type="curve"/>
    </contour>
    <contour>
      <point x="459" y="457" type="line"/>
      <point x="410" y="458"/>
      <point x="364" y="469"/>
      <point x="364" y="490" type="curve" smooth="yes"/>
      <point x="364" y="505"/>
      <point x="376" y="519"/>
      <point x="459" y="519" type="curve"/>
    </contour>
    <contour>
      <point x="626" y="238" type="line"/>
      <point x="679" y="235"/>
      <point x="725" y="229"/>
      <point x="725" y="203" type="curve" smooth="yes"/>
      <point x="725" y="183"/>
      <point x="695" y="172"/>
      <point x="626" y="172" type="curve"/>
    </contour>
  </outline>
</glyph>
<glyph name="percent" format="1">
  <advance width="1377"/>
  <unicode hex="0025"/>
  <outline>
    <contour>
      <point x="598" y="521" type="line"/>
      <point x="598" y="623"/>
      <point x="507" y="705"/>
      <point x="308" y="705" type="curve" smooth="yes"/>
      <point x="108" y="705"/>
      <point x="17" y="623"/>
      <point x="17" y="521" type="curve" smooth="yes"/>
      <point x="17" y="430"/>
      <point x="100" y="338"/>
      <point x="308" y="338" type="curve" smooth="yes"/>
      <point x="511" y="338"/>
      <point x="598" y="426"/>
      <point x="598" y="520" type="curve"/>
    </contour>
    <contour>
      <point x="1160" y="705" type="line"/>
      <point x="935" y="705" type="line"/>
      <point x="211" y="-12" type="line"/>
      <point x="437" y="-12" type="line"/>
    </contour>
    <contour>
      <point x="308" y="467" type="line"/>
      <point x="246" y="467"/>
      <point x="197" y="487"/>
      <point x="197" y="521" type="curve" smooth="yes"/>
      <point x="197" y="559"/>
      <point x="247" y="576"/>
      <point x="308" y="576" type="curve" smooth="yes"/>
      <point x="368" y="576"/>
      <point x="418" y="559"/>
      <point x="418" y="521" type="curve" smooth="yes"/>
      <point x="418" y="491"/>
      <point x="376" y="467"/>
      <point x="309" y="467" type="curve"/>
    </contour>
    <contour>
      <point x="1360" y="171" type="line"/>
      <point x="1360" y="273"/>
      <point x="1269" y="355"/>
      <point x="1070" y="355" type="curve" smooth="yes"/>
      <point x="870" y="355"/>
      <point x="779" y="273"/>
      <point x="779" y="171" type="curve" smooth="yes"/>
      <point x="779" y="80"/>
      <point x="862" y="-12"/>
      <point x="1070" y="-12" type="curve" smooth="yes"/>
      <point x="1273" y="-12"/>
      <point x="1360" y="76"/>
      <point x="1360" y="170" type="curve"/>
    </contour>
    <contour>
      <point x="1070" y="117" type="line"/>
      <point x="1008" y="117"/>
      <point x="959" y="137"/>
      <point x="959" y="171" type="curve" smooth="yes"/>
      <point x="959" y="209"/>
      <point x="1009" y="226"/>
      <point x="1070" y="226" type="curve" smooth="yes"/>
      <point x="1130" y="226"/>
      <point x="1180" y="209"/>
      <point x="1180" y="171" type="curve" smooth="yes"/>
      <point x="1180" y="141"/>
      <point x="1138" y="117"/>
      <point x="1071" y="117" type="curve"/>
    </contour>
  </outline>
</glyph>
<glyph name="ampersand" format="1">
  <advance width="1184"/>
  <unicode hex="0026"/>
  <outline>
    <contour>
      <point x="1086" y="0" type="line"/>
      <point x="1035" y="43"/>
      <point x="995" y="79"/>
      <point x="945" y="123" type="curve"/>
      <point x="1010" y="170"/>
      <point x="1085" y="248"/>
      <point x="1085" y="358" type="curve"/>
      <point x="854" y="358" type="line"/>
      <point x="848" y="311"/>
      <point x="819" y="268"/>
      <point x="789" y="248" type="curve"/>
      <point x="751" y="279"/>
      <point x="713" y="311"/>
      <point x="675" y="342" type="curve"/>
      <point x="827" y="380"/>
      <point x="878" y="435"/>
      <point x="878" y="516" type="curve" smooth="yes"/>
      <point x="878" y="605"/>
      <point x="783" y="674"/>
      <point x="549" y="674" type="curve" smooth="yes"/>
      <point x="295" y="674"/>
      <point x="225" y="589"/>
      <point x="225" y="500" type="curve" smooth="yes"/>
      <point x="225" y="445"/>
      <point x="260" y="401"/>
      <point x="292" y="371" type="curve"/>
      <point x="127" y="317"/>
      <point x="75" y="266"/>
      <point x="75" y="169" type="curve" smooth="yes"/>
      <point x="75" y="62"/>
      <point x="180" y="-14"/>
      <point x="412" y="-14" type="curve" smooth="yes"/>
      <point x="536" y="-14"/>
      <point x="643" y="0"/>
      <point x="699" y="19" type="curve"/>
      <point x="704" y="19" type="line"/>
      <point x="711" y="13"/>
      <point x="719" y="6"/>
      <point x="726" y="0" type="curve"/>
    </contour>
    <contour>
      <point x="488" y="511" type="line"/>
      <point x="488" y="534"/>
      <point x="513" y="548"/>
      <point x="552" y="548" type="curve" smooth="yes"/>
      <point x="609" y="548"/>
      <point x="629" y="527"/>
      <point x="629" y="504" type="curve" smooth="yes"/>
      <point x="629" y="480"/>
      <point x="607" y="463"/>
      <point x="549" y="447" type="curve"/>
      <point x="501" y="484"/>
      <point x="488" y="492"/>
      <point x="488" y="510" type="curve"/>
    </contour>
    <contour>
      <point x="354" y="194" type="line"/>
      <point x="354" y="228"/>
      <point x="370" y="250"/>
      <point x="413" y="269" type="curve"/>
      <point x="442" y="244"/>
      <point x="534" y="167"/>
      <point x="565" y="139" type="curve"/>
      <point x="540" y="128"/>
      <point x="488" y="121"/>
      <point x="456" y="121" type="curve" smooth="yes"/>
      <point x="395" y="121"/>
      <point x="354" y="151"/>
      <point x="354" y="193" type="curve"/>
    </contour>
  </outline>
</glyph>
<glyph name="parenleft" format="1">
  <advance width="751"/>
  <unicode hex="0028"/>
  <outline>
    <contour>
      <point x="699" y="-73" type="line"/>
      <point x="639" y="-45"/>
      <point x="576" y="-13"/>
      <point x="529" y="42" type="curve" smooth="yes"/>
      <point x="482" y="97"/>
      <point x="448" y="172"/>
      <point x="448" y="288" type="curve" smooth="yes"/>
      <point x="448" y="406"/>
      <point x="481" y="484"/>
      <point x="529" y="539" type="curve" smooth="yes"/>
      <point x="577" y="594"/>
      <point x="639" y="627"/>
      <point x="699" y="655" type="curve"/>
      <point x="643" y="766" type="line"/>
      <point x="496" y="730"/>
      <point x="398" y="689"/>
      <point x="321" y="628" type="curve" smooth="yes"/>
      <point x="226" y="552"/>
      <point x="168" y="440"/>
      <point x="168" y="290" type="curve" smooth="yes"/>
      <point x="168" y="168"/>
      <point x="208" y="56"/>
      <point x="298" y="-26" type="curve" smooth="yes"/>
      <point x="390" y="-109"/>
      <point x="507" y="-151"/>
      <point x="643" y="-184" type="curve"/>
    </contour>
  </outline>
</glyph>
<glyph name="parenright" format="1">
  <advance width="751"/>
  <unicode hex="0029"/>
  <outline>
    <contour>
      <point x="108" y="-184" type="line"/>
      <point x="244" y="-151"/>
      <point x="361" y="-109"/>
      <point x="453" y="-26" type="curve" smooth="yes"/>
      <point x="543" y="56"/>
      <point x="583" y="168"/>
      <point x="583" y="290" type="curve" smooth="yes"/>
      <point x="583" y="440"/>
      <point x="525" y="552"/>
      <point x="430" y="628" type="curve" smooth="yes"/>
      <point x="353" y="689"/>
      <point x="255" y="730"/>
      <point x="108" y="766" type="curve"/>
      <point x="52" y="655" type="line"/>
      <point x="112" y="627"/>
      <point x="174" y="594"/>
      <point x="222" y="539" type="curve" smooth="yes"/>
      <point x="270" y="484"/>
      <point x="303" y="406"/>
      <point x="303" y="288" type="curve" smooth="yes"/>
      <point x="303" y="172"/>
      <point x="269" y="97"/>
      <point x="222" y="42" type="curve" smooth="yes"/>
      <point x="175" y="-13"/>
      <point x="112" y="-45"/>
      <point x="52" y="-73" type="curve"/>
    </contour>
  </outline>
</glyph>
<glyph name="comma" format="1">
  <advance width="555"/>
  <unicode hex="002C"/>
  <outline>
    <contour>
      <point x="71" y="-158" type="line"/>
      <point x="222" y="-158" type="line"/>
      <point x="418" y="197" type="line"/>
      <point x="150" y="197" type="line"/>
    </contour>
  </outline>
</glyph>
<glyph name="hyphen" format="1">
  <advance width="818"/>
  <unicode hex="002D"/>
  <outline>
    <contour>
      <point x="150" y="337" type="line"/>
      <point x="150" y="160" type="line"/>
      <point x="668" y="160" type="line"/>
      <point x="668" y="337" type="line"/>
    </contour>
  </outline>
</glyph>
<glyph name="period" format="1">
  <advance width="555"/>
  <unicode hex="002E"/>
  <outline>
    <contour>
      <point x="150" y="177" type="line"/>
      <point x="150" y="0" type="line"/>
      <point x="405" y="0" type="line"/>
      <point x="405" y="177" type="line"/>
    </contour>
  </outline>
</glyph>
<glyph name="slash" format="1">
  <advance width="787"/>
  <unicode hex="002F"/>
  <outline>
    <contour>
      <point x="804" y="739" type="line"/>
      <point x="594" y="739" type="line"/>
      <point x="20" y="-12" type="line"/>
      <point x="230" y="-12" type="line"/>
    </contour>
  </outline>
</glyph>
<glyph name="zero" format="1">
  <advance width="1372"/>
  <unicode hex="0030"/>
  <outline>
    <contour>
      <point x="53" y="346" type="line"/>
      <point x="53" y="148"/>
      <point x="257" y="-14"/>
      <point x="685" y="-14" type="curve" smooth="yes"/>
      <point x="1141" y="-14"/>
      <point x="1318" y="160"/>
      <point x="1318" y="346" type="curve" smooth="yes"/>
      <point x="1318" y="549"/>
      <point x="1120" y="705"/>
      <point x="685" y="705" type="curve" smooth="yes"/>
      <point x="253" y="705"/>
      <point x="53" y="548"/>
      <point x="53" y="347" type="curve"/>
    </contour>
    <contour>
      <point x="685" y="530" type="line"/>
      <point x="846" y="530"/>
      <point x="1030" y="481"/>
      <point x="1030" y="345" type="curve" smooth="yes"/>
      <point x="1030" y="244"/>
      <point x="910" y="161"/>
      <point x="685" y="161" type="curve" smooth="yes"/>
      <point x="470" y="161"/>
      <point x="341" y="242"/>
      <point x="341" y="345" type="curve" smooth="yes"/>
      <point x="341" y="481"/>
      <point x="524" y="530"/>
      <point x="684" y="530" type="curve"/>
    </contour>
  </outline>
</glyph>
<glyph name="one" format="1">
  <advance width="1187"/>
  <unicode hex="0031"/>
  <outline>
    <contour>
      <point x="229" y="513" type="line"/>
      <point x="319" y="319" type="line"/>
      <point x="547" y="433" type="line"/>
      <point x="547" y="0" type="line"/>
      <point x="827" y="0" type="line"/>
      <point x="827" y="698" type="line"/>
      <point x="607" y="698" type="line"/>
    </contour>
  </outline>
</glyph>
<glyph name="two" format="1">
  <advance width="1372"/>
  <unicode hex="0032"/>
  <outline>
    <contour>
      <point x="1201" y="190" type="line"/>
      <point x="572" y="190" type="line"/>
      <point x="615" y="256"/>
      <point x="1191" y="204"/>
      <point x="1191" y="499" type="curve" smooth="yes"/>
      <point x="1191" y="642"/>
      <point x="987" y="705"/>
      <point x="747" y="705" type="curve" smooth="yes"/>
      <point x="475" y="705"/>
      <point x="304" y="631"/>
      <point x="193" y="490" type="curve"/>
      <point x="512" y="462" type="line"/>
      <point x="548" y="491"/>
      <point x="608" y="530"/>
      <point x="730" y="530" type="curve" smooth="yes"/>
      <point x="870" y="530"/>
      <point x="903" y="507"/>
      <point x="903" y="487" type="curve" smooth="yes"/>
      <point x="903" y="411"/>
      <point x="305" y="424"/>
      <point x="170" y="9" type="curve"/>
      <point x="189" y="0" type="line"/>
      <point x="1201" y="0" type="line"/>
    </contour>
  </outline>
</glyph>
<glyph name="three" format="1">
  <advance width="1372"/>
  <unicode hex="0033"/>
  <outline>
    <contour>
      <point x="605" y="261" type="line"/>
      <point x="754" y="261"/>
      <point x="915" y="253"/>
      <point x="915" y="209" type="curve" smooth="yes"/>
      <point x="915" y="189"/>
      <point x="859" y="164"/>
      <point x="684" y="164" type="curve" smooth="yes"/>
      <point x="581" y="164"/>
      <point x="505" y="216"/>
      <point x="486" y="247" type="curve"/>
      <point x="165" y="201" type="line"/>
      <point x="214" y="88"/>
      <point x="377" y="-14"/>
      <point x="686" y="-14" type="curve" smooth="yes"/>
      <point x="1047" y="-14"/>
      <point x="1203" y="72"/>
      <point x="1203" y="191" type="curve" smooth="yes"/>
      <point x="1203" y="311"/>
      <point x="1052" y="353"/>
      <point x="933" y="357" type="curve"/>
      <point x="933" y="358" type="line"/>
      <point x="1057" y="373"/>
      <point x="1154" y="420"/>
      <point x="1154" y="510" type="curve" smooth="yes"/>
      <point x="1154" y="650"/>
      <point x="945" y="705"/>
      <point x="675" y="705" type="curve" smooth="yes"/>
      <point x="450" y="705"/>
      <point x="252" y="637"/>
      <point x="189" y="501" type="curve"/>
      <point x="511" y="463" type="line"/>
      <point x="532" y="497"/>
      <point x="586" y="530"/>
      <point x="705" y="530" type="curve" smooth="yes"/>
      <point x="838" y="530"/>
      <point x="871" y="507"/>
      <point x="871" y="490" type="curve" smooth="yes"/>
      <point x="871" y="457"/>
      <point x="760" y="438"/>
      <point x="605" y="436" type="curve"/>
    </contour>
  </outline>
</glyph>
<glyph name="four" format="1">
  <advance width="1372"/>
  <unicode hex="0034"/>
  <outline>
    <contour>
      <point x="158" y="281" type="line"/>
      <point x="158" y="113" type="line"/>
      <point x="751" y="113" type="line"/>
      <point x="751" y="0" type="line"/>
      <point x="1031" y="0" type="line"/>
      <point x="1031" y="113" type="line"/>
      <point x="1196" y="113" type="line"/>
      <point x="1196" y="298" type="line"/>
      <point x="1031" y="298" type="line"/>
      <point x="1031" y="698" type="line"/>
      <point x="761" y="698" type="line"/>
    </contour>
    <contour>
      <point x="489" y="298" type="line"/>
      <point x="631" y="396" type="line" smooth="yes"/>
      <point x="672" y="424"/>
      <point x="713" y="454"/>
      <point x="751" y="486" type="curve"/>
      <point x="755" y="486" type="line"/>
      <point x="752" y="455"/>
      <point x="751" y="424"/>
      <point x="751" y="392" type="curve" smooth="yes"/>
      <point x="751" y="298" type="line"/>
    </contour>
  </outline>
</glyph>
<glyph name="five" format="1">
  <advance width="1372"/>
  <unicode hex="0035"/>
  <outline>
    <contour>
      <point x="191" y="285" type="line"/>
      <point x="452" y="247" type="line"/>
      <point x="509" y="267"/>
      <point x="560" y="279"/>
      <point x="675" y="279" type="curve" smooth="yes"/>
      <point x="782" y="279"/>
      <point x="908" y="259"/>
      <point x="908" y="219" type="curve" smooth="yes"/>
      <point x="908" y="190"/>
      <point x="870" y="163"/>
      <point x="675" y="163" type="curve" smooth="yes"/>
      <point x="539" y="163"/>
      <point x="483" y="180"/>
      <point x="432" y="214" type="curve"/>
      <point x="139" y="156" type="line"/>
      <point x="252" y="57"/>
      <point x="415" y="-12"/>
      <point x="687" y="-12" type="curve" smooth="yes"/>
      <point x="1060" y="-12"/>
      <point x="1197" y="117"/>
      <point x="1197" y="230" type="curve" smooth="yes"/>
      <point x="1197" y="424"/>
      <point x="880" y="454"/>
      <point x="721" y="454" type="curve" smooth="yes"/>
      <point x="603" y="454"/>
      <point x="531" y="443"/>
      <point x="456" y="417" type="curve"/>
      <point x="451" y="417" type="line"/>
      <point x="479" y="507" type="line"/>
      <point x="1065" y="507" type="line"/>
      <point x="1115" y="692" type="line"/>
      <point x="306" y="692" type="line"/>
    </contour>
  </outline>
</glyph>
<glyph name="six" format="1">
  <advance width="1372"/>
  <unicode hex="0036"/>
  <outline>
    <contour>
      <point x="433" y="413" type="line"/>
      <point x="463" y="478"/>
      <point x="536" y="530"/>
      <point x="689" y="530" type="curve" smooth="yes"/>
      <point x="788" y="530"/>
      <point x="840" y="509"/>
      <point x="891" y="480" type="curve"/>
      <point x="1186" y="543" type="line"/>
      <point x="1029" y="675"/>
      <point x="857" y="705"/>
      <point x="669" y="705" type="curve" smooth="yes"/>
      <point x="392" y="705"/>
      <point x="145" y="581"/>
      <point x="145" y="336" type="curve" smooth="yes"/>
      <point x="145" y="114"/>
      <point x="301" y="-12"/>
      <point x="704" y="-12" type="curve" smooth="yes"/>
      <point x="1043" y="-12"/>
      <point x="1239" y="93"/>
      <point x="1239" y="229" type="curve" smooth="yes"/>
      <point x="1239" y="361"/>
      <point x="1064" y="458"/>
      <point x="698" y="458" type="curve" smooth="yes"/>
      <point x="598" y="458"/>
      <point x="493" y="435"/>
      <point x="439" y="413" type="curve"/>
    </contour>
    <contour>
      <point x="433" y="224" type="line"/>
      <point x="433" y="270"/>
      <point x="621" y="283"/>
      <point x="689" y="283" type="curve" smooth="yes"/>
      <point x="892" y="283"/>
      <point x="951" y="247"/>
      <point x="951" y="221" type="curve" smooth="yes"/>
      <point x="951" y="190"/>
      <point x="832" y="163"/>
      <point x="689" y="163" type="curve" smooth="yes"/>
      <point x="542" y="163"/>
      <point x="433" y="187"/>
      <point x="433" y="223" type="curve"/>
    </contour>
  </outline>
</glyph>
<glyph name="seven" format="1">
  <advance width="1157"/>
  <unicode hex="0037"/>
  <outline>
    <contour>
      <point x="989" y="692" type="line"/>
      <point x="129" y="692" type="line"/>
      <point x="129" y="502" type="line"/>
      <point x="636" y="502" type="line"/>
      <point x="636" y="498" type="line"/>
      <point x="289" y="0" type="line"/>
      <point x="633" y="0" type="line"/>
      <point x="989" y="641" type="line"/>
    </contour>
  </outline>
</glyph>
<glyph name="eight" format="1">
  <advance width="1372"/>
  <unicode hex="0038"/>
  <outline>
    <contour>
      <point x="401" y="348" type="line"/>
      <point x="260" y="340"/>
      <point x="136" y="311"/>
      <point x="136" y="185" type="curve" smooth="yes"/>
      <point x="136" y="81"/>
      <point x="252" y="-12"/>
      <point x="687" y="-12" type="curve" smooth="yes"/>
      <point x="1151" y="-12"/>
      <point x="1237" y="95"/>
      <point x="1237" y="185" type="curve" smooth="yes"/>
      <point x="1237" y="296"/>
      <point x="1129" y="345"/>
      <point x="972" y="348" type="curve"/>
      <point x="972" y="351" type="line"/>
      <point x="1137" y="358"/>
      <point x="1199" y="430"/>
      <point x="1199" y="506" type="curve" smooth="yes"/>
      <point x="1199" y="643"/>
      <point x="962" y="705"/>
      <point x="687" y="705" type="curve" smooth="yes"/>
      <point x="379" y="705"/>
      <point x="174" y="630"/>
      <point x="174" y="506" type="curve" smooth="yes"/>
      <point x="174" y="425"/>
      <point x="250" y="354"/>
      <point x="401" y="351" type="curve"/>
    </contour>
    <contour>
      <point x="454" y="477" type="line"/>
      <point x="454" y="507"/>
      <point x="516" y="530"/>
      <point x="687" y="530" type="curve" smooth="yes"/>
      <point x="856" y="530"/>
      <point x="919" y="507"/>
      <point x="919" y="477" type="curve" smooth="yes"/>
      <point x="919" y="440"/>
      <point x="784" y="430"/>
      <point x="687" y="430" type="curve" smooth="yes"/>
      <point x="491" y="430"/>
      <point x="454" y="455"/>
      <point x="454" y="476" type="curve"/>
    </contour>
    <contour>
      <point x="424" y="211" type="line"/>
      <point x="424" y="250"/>
      <point x="542" y="265"/>
      <point x="687" y="265" type="curve" smooth="yes"/>
      <point x="882" y="265"/>
      <point x="948" y="240"/>
      <point x="948" y="211" type="curve" smooth="yes"/>
      <point x="948" y="167"/>
      <point x="783" y="163"/>
      <point x="687" y="163" type="curve" smooth="yes"/>
      <point x="565" y="163"/>
      <point x="424" y="171"/>
      <point x="424" y="210" type="curve"/>
    </contour>
  </outline>
</glyph>
<glyph name="nine" format="1">
  <advance width="1372"/>
  <unicode hex="0039"/>
  <outline>
    <contour>
      <point x="940" y="280" type="line"/>
      <point x="903" y="212"/>
      <point x="797" y="162"/>
      <point x="675" y="162" type="curve" smooth="yes"/>
      <point x="570" y="162"/>
      <point x="506" y="177"/>
      <point x="449" y="213" type="curve"/>
      <point x="150" y="149" type="line"/>
      <point x="296" y="30"/>
      <point x="473" y="-12"/>
      <point x="678" y="-12" type="curve" smooth="yes"/>
      <point x="1129" y="-12"/>
      <point x="1228" y="244"/>
      <point x="1228" y="372" type="curve" smooth="yes"/>
      <point x="1228" y="607"/>
      <point x="986" y="705"/>
      <point x="669" y="705" type="curve" smooth="yes"/>
      <point x="281" y="705"/>
      <point x="134" y="573"/>
      <point x="134" y="471" type="curve" smooth="yes"/>
      <point x="134" y="335"/>
      <point x="312" y="235"/>
      <point x="670" y="235" type="curve" smooth="yes"/>
      <point x="813" y="235"/>
      <point x="911" y="271"/>
      <point x="934" y="280" type="curve"/>
    </contour>
    <contour>
      <point x="940" y="466" type="line"/>
      <point x="940" y="423"/>
      <point x="772" y="410"/>
      <point x="684" y="410" type="curve" smooth="yes"/>
      <point x="478" y="410"/>
      <point x="422" y="444"/>
      <point x="422" y="471" type="curve" smooth="yes"/>
      <point x="422" y="500"/>
      <point x="539" y="530"/>
      <point x="684" y="530" type="curve" smooth="yes"/>
      <point x="810" y="530"/>
      <point x="940" y="504"/>
      <point x="940" y="467" type="curve"/>
    </contour>
  </outline>
</glyph>
<glyph name="colon" format="1">
  <advance width="555"/>
  <unicode hex="003A"/>
  <outline>
    <contour>
      <point x="150" y="497" type="line"/>
      <point x="150" y="320" type="line"/>
      <point x="405" y="320" type="line"/>
      <point x="405" y="497" type="line"/>
    </contour>
    <contour>
      <point x="150" y="177" type="line"/>
      <point x="150" y="0" type="line"/>
      <point x="405" y="0" type="line"/>
      <point x="405" y="177" type="line"/>
    </contour>
  </outline>
</glyph>
<glyph name="semicolon" format="1">
  <advance width="555"/>
  <unicode hex="003B"/>
  <outline>
    <contour>
      <point x="150" y="497" type="line"/>
      <point x="150" y="320" type="line"/>
      <point x="405" y="320" type="line"/>
      <point x="405" y="497" type="line"/>
    </contour>
    <contour>
      <point x="71" y="-158" type="line"/>
      <point x="222" y="-158" type="line"/>
      <point x="418" y="177" type="line"/>
      <point x="150" y="177" type="line"/>
    </contour>
  </outline>
</glyph>
<glyph name="question" format="1">
  <advance width="1089"/>
  <unicode hex="003F"/>
  <outline>
    <contour>
      <point x="640" y="257" type="line"/>
      <point x="642" y="291"/>
      <point x="721" y="317"/>
      <point x="803" y="349" type="curve" smooth="yes"/>
      <point x="892" y="384"/>
      <point x="952" y="430"/>
      <point x="952" y="519" type="curve" smooth="yes"/>
      <point x="952" y="635"/>
      <point x="841" y="723"/>
      <point x="538" y="723" type="curve" smooth="yes"/>
      <point x="315" y="723"/>
      <point x="172" y="654"/>
      <point x="72" y="516" type="curve"/>
      <point x="358" y="477" type="line"/>
      <point x="390" y="520"/>
      <point x="454" y="544"/>
      <point x="534" y="544" type="curve" smooth="yes"/>
      <point x="630" y="544"/>
      <point x="664" y="525"/>
      <point x="664" y="501" type="curve" smooth="yes"/>
      <point x="664" y="470"/>
      <point x="574" y="446"/>
      <point x="506" y="402" type="curve" smooth="yes"/>
      <point x="430" y="352"/>
      <point x="405" y="293"/>
      <point x="414" y="257" type="curve"/>
    </contour>
    <contour>
      <point x="400" y="177" type="line"/>
      <point x="400" y="0" type="line"/>
      <point x="655" y="0" type="line"/>
      <point x="655" y="177" type="line"/>
    </contour>
  </outline>
</glyph>
<glyph name="at" format="1">
  <advance width="1184"/>
  <unicode hex="0040"/>
  <outline>
    <contour>
      <point x="827" y="137" type="line"/>
      <point x="758" y="119"/>
      <point x="670" y="103"/>
      <point x="587" y="103" type="curve" smooth="yes"/>
      <point x="450" y="103"/>
      <point x="281" y="132"/>
      <point x="281" y="319" type="curve" smooth="yes"/>
      <point x="281" y="404"/>
      <point x="319" y="475"/>
      <point x="384" y="526" type="curve" smooth="yes"/>
      <point x="449" y="577"/>
      <point x="541" y="606"/>
      <point x="647" y="606" type="curve" smooth="yes"/>
      <point x="743" y="606"/>
      <point x="815" y="594"/>
      <point x="863" y="567" type="curve" smooth="yes"/>
      <point x="911" y="541"/>
      <point x="935" y="502"/>
      <point x="935" y="447" type="curve" smooth="yes"/>
      <point x="935" y="407"/>
      <point x="922" y="362"/>
      <point x="897" y="322" type="curve" smooth="yes"/>
      <point x="875" y="287"/>
      <point x="848" y="271"/>
      <point x="832" y="271" type="curve" smooth="yes"/>
      <point x="811" y="271"/>
      <point x="813" y="280"/>
      <point x="823" y="324" type="curve" smooth="yes"/>
      <point x="875" y="544" type="line"/>
      <point x="695" y="544" type="line"/>
      <point x="690" y="523" type="line"/>
      <point x="687" y="523" type="line"/>
      <point x="669" y="539"/>
      <point x="643" y="546"/>
      <point x="602" y="546" type="curve" smooth="yes"/>
      <point x="551" y="546"/>
      <point x="493" y="527"/>
      <point x="444" y="484" type="curve" smooth="yes"/>
      <point x="378" y="428"/>
      <point x="360" y="368"/>
      <point x="360" y="294" type="curve" smooth="yes"/>
      <point x="360" y="217"/>
      <point x="417" y="164"/>
      <point x="490" y="164" type="curve" smooth="yes"/>
      <point x="554" y="164"/>
      <point x="618" y="204"/>
      <point x="632" y="239" type="curve"/>
      <point x="638" y="239" type="line"/>
      <point x="636" y="218"/>
      <point x="653" y="198"/>
      <point x="666" y="189" type="curve" smooth="yes"/>
      <point x="696" y="168"/>
      <point x="734" y="164"/>
      <point x="782" y="164" type="curve" smooth="yes"/>
      <point x="844" y="164"/>
      <point x="921" y="178"/>
      <point x="993" y="234" type="curve" smooth="yes"/>
      <point x="1069" y="292"/>
      <point x="1104" y="360"/>
      <point x="1104" y="451" type="curve" smooth="yes"/>
      <point x="1104" y="580"/>
      <point x="1012" y="723"/>
      <point x="679" y="723" type="curve" smooth="yes"/>
      <point x="281" y="723"/>
      <point x="83" y="536"/>
      <point x="83" y="333" type="curve" smooth="yes"/>
      <point x="83" y="172"/>
      <point x="194" y="-14"/>
      <point x="539" y="-14" type="curve" smooth="yes"/>
      <point x="666" y="-14"/>
      <point x="836" y="8"/>
      <point x="905" y="46" type="curve"/>
    </contour>
    <contour>
      <point x="567" y="334" type="line"/>
      <point x="567" y="366"/>
      <point x="584" y="401"/>
      <point x="601" y="419" type="curve"/>
      <point x="619" y="440"/>
      <point x="630" y="444"/>
      <point x="646" y="444" type="curve" smooth="yes"/>
      <point x="656" y="444"/>
      <point x="667" y="438"/>
      <point x="667" y="433" type="curve" smooth="yes"/>
      <point x="667" y="422"/>
      <point x="661" y="382"/>
      <point x="646" y="356" type="curve" smooth="yes"/>
      <point x="631" y="329"/>
      <point x="602" y="308"/>
      <point x="585" y="308" type="curve" smooth="yes"/>
      <point x="567" y="308"/>
      <point x="567" y="319"/>
      <point x="567" y="333" type="curve"/>
    </contour>
  </outline>
</glyph>
<glyph name="A" format="1">
  <advance width="1356"/>
  <unicode hex="0041"/>
  <outline>
    <contour>
      <point x="912" y="131" type="line"/>
      <point x="982" y="0" type="line"/>
      <point x="1321" y="0" type="line"/>
      <point x="885" y="709" type="line"/>
      <point x="471" y="709" type="line"/>
      <point x="35" y="0" type="line"/>
      <point x="376" y="0" type="line"/>
      <point x="443" y="131" type="line"/>
    </contour>
    <contour>
      <point x="817" y="310" type="line"/>
      <point x="538" y="310" type="line"/>
      <point x="606" y="443" type="line" smooth="yes"/>
      <point x="626" y="483"/>
      <point x="650" y="530"/>
      <point x="669" y="576" type="curve"/>
      <point x="684" y="576" type="line"/>
      <point x="704" y="530"/>
      <point x="725" y="488"/>
      <point x="748" y="444" type="curve" smooth="yes"/>
    </contour>
  </outline>
</glyph>
<glyph name="B" format="1">
  <advance width="1265"/>
  <unicode hex="0042"/>
  <outline>
    <contour>
      <point x="928" y="380" type="line"/>
      <point x="1088" y="382"/>
      <point x="1136" y="456"/>
      <point x="1136" y="527" type="curve" smooth="yes"/>
      <point x="1136" y="656"/>
      <point x="1025" y="709"/>
      <point x="650" y="709" type="curve" smooth="yes"/>
      <point x="100" y="709" type="line"/>
      <point x="100" y="0" type="line"/>
      <point x="756" y="0" type="line" smooth="yes"/>
      <point x="1034" y="0"/>
      <point x="1210" y="34"/>
      <point x="1210" y="203" type="curve" smooth="yes"/>
      <point x="1210" y="274"/>
      <point x="1159" y="372"/>
      <point x="928" y="375" type="curve"/>
    </contour>
    <contour>
      <point x="906" y="223" type="curve" smooth="yes"/>
      <point x="906" y="190"/>
      <point x="846" y="179"/>
      <point x="660" y="179" type="curve" smooth="yes"/>
      <point x="395" y="179" type="line"/>
      <point x="395" y="266" type="line"/>
      <point x="660" y="266" type="line" smooth="yes"/>
      <point x="807" y="266"/>
      <point x="906" y="256"/>
    </contour>
    <contour>
      <point x="832" y="487" type="curve" smooth="yes"/>
      <point x="832" y="459"/>
      <point x="760" y="445"/>
      <point x="655" y="445" type="curve" smooth="yes"/>
      <point x="395" y="445" type="line"/>
      <point x="395" y="530" type="line"/>
      <point x="653" y="530" type="line" smooth="yes"/>
      <point x="767" y="530"/>
      <point x="832" y="516"/>
    </contour>
  </outline>
</glyph>
<glyph name="C" format="1">
  <advance width="1375"/>
  <unicode hex="0043"/>
  <outline>
    <contour>
      <point x="989" y="292" type="line"/>
      <point x="966" y="255"/>
      <point x="861" y="164"/>
      <point x="687" y="164" type="curve" smooth="yes"/>
      <point x="512" y="164"/>
      <point x="364" y="246"/>
      <point x="364" y="354" type="curve" smooth="yes"/>
      <point x="364" y="444"/>
      <point x="480" y="544"/>
      <point x="690" y="544" type="curve" smooth="yes"/>
      <point x="861" y="544"/>
      <point x="944" y="481"/>
      <point x="988" y="432" type="curve"/>
      <point x="1313" y="480" type="line"/>
      <point x="1222" y="604"/>
      <point x="1010" y="723"/>
      <point x="690" y="723" type="curve" smooth="yes"/>
      <point x="544" y="723"/>
      <point x="391" y="699"/>
      <point x="268" y="640" type="curve" smooth="yes"/>
      <point x="147" y="582"/>
      <point x="60" y="491"/>
      <point x="60" y="355" type="curve" smooth="yes"/>
      <point x="60" y="212"/>
      <point x="144" y="120"/>
      <point x="266" y="63" type="curve" smooth="yes"/>
      <point x="391" y="5"/>
      <point x="555" y="-14"/>
      <point x="688" y="-14" type="curve" smooth="yes"/>
      <point x="955" y="-14"/>
      <point x="1208" y="90"/>
      <point x="1317" y="227" type="curve"/>
    </contour>
  </outline>
</glyph>
<glyph name="D" format="1">
  <advance width="1333"/>
  <unicode hex="0044"/>
  <outline>
    <contour>
      <point x="1273" y="362" type="curve" smooth="yes"/>
      <point x="1273" y="534"/>
      <point x="1116" y="709"/>
      <point x="652" y="709" type="curve" smooth="yes"/>
      <point x="100" y="709" type="line"/>
      <point x="100" y="0" type="line"/>
      <point x="666" y="0" type="line"/>
      <point x="1134" y="0"/>
      <point x="1273" y="169"/>
    </contour>
    <contour>
      <point x="969" y="357" type="curve" smooth="yes"/>
      <point x="969" y="239"/>
      <point x="827" y="179"/>
      <point x="619" y="179" type="curve" smooth="yes"/>
      <point x="395" y="179" type="line"/>
      <point x="395" y="530" type="line"/>
      <point x="610" y="530" type="line" smooth="yes"/>
      <point x="894" y="530"/>
      <point x="969" y="439"/>
    </contour>
  </outline>
</glyph>
<glyph name="E" format="1">
  <advance width="1116"/>
  <unicode hex="0045"/>
  <outline>
    <contour>
      <point x="395" y="445" type="line"/>
      <point x="395" y="530" type="line"/>
      <point x="1011" y="530" type="line"/>
      <point x="1011" y="709" type="line"/>
      <point x="100" y="709" type="line"/>
      <point x="100" y="0" type="line"/>
      <point x="1026" y="0" type="line"/>
      <point x="1026" y="179" type="line"/>
      <point x="395" y="179" type="line"/>
      <point x="395" y="266" type="line"/>
      <point x="817" y="266" type="line"/>
      <point x="817" y="445" type="line"/>
    </contour>
  </outline>
</glyph>
<glyph name="F" format="1">
  <advance width="1043"/>
  <unicode hex="0046"/>
  <outline>
    <contour>
      <point x="395" y="0" type="line"/>
      <point x="395" y="261" type="line"/>
      <point x="817" y="261" type="line"/>
      <point x="817" y="440" type="line"/>
      <point x="395" y="440" type="line"/>
      <point x="395" y="530" type="line"/>
      <point x="963" y="530" type="line"/>
      <point x="963" y="709" type="line"/>
      <point x="100" y="709" type="line"/>
      <point x="100" y="0" type="line"/>
    </contour>
  </outline>
</glyph>
<glyph name="G" format="1">
  <advance width="1389"/>
  <unicode hex="0047"/>
  <outline>
    <contour>
      <point x="1299" y="424" type="line"/>
      <point x="747" y="424" type="line"/>
      <point x="747" y="245" type="line"/>
      <point x="1004" y="245" type="line"/>
      <point x="1004" y="200" type="line"/>
      <point x="962" y="186"/>
      <point x="856" y="164"/>
      <point x="699" y="164" type="curve" smooth="yes"/>
      <point x="490" y="164"/>
      <point x="364" y="260"/>
      <point x="364" y="356" type="curve" smooth="yes"/>
      <point x="364" y="477"/>
      <point x="545" y="545"/>
      <point x="715" y="545" type="curve" smooth="yes"/>
      <point x="813" y="545"/>
      <point x="877" y="527"/>
      <point x="946" y="505" type="curve"/>
      <point x="1273" y="591" type="line"/>
      <point x="1110" y="690"/>
      <point x="855" y="723"/>
      <point x="709" y="723" type="curve" smooth="yes"/>
      <point x="313" y="723"/>
      <point x="60" y="581"/>
      <point x="60" y="355" type="curve" smooth="yes"/>
      <point x="60" y="154"/>
      <point x="255" y="-14"/>
      <point x="689" y="-14" type="curve" smooth="yes"/>
      <point x="981" y="-14"/>
      <point x="1212" y="76"/>
      <point x="1299" y="126" type="curve"/>
    </contour>
  </outline>
</glyph>
<glyph name="H" format="1">
  <advance width="1345"/>
  <unicode hex="0048"/>
  <outline>
    <contour>
      <point x="1245" y="709" type="line"/>
      <point x="950" y="709" type="line"/>
      <point x="950" y="450" type="line"/>
      <point x="395" y="450" type="line"/>
      <point x="395" y="709" type="line"/>
      <point x="100" y="709" type="line"/>
      <point x="100" y="0" type="line"/>
      <point x="395" y="0" type="line"/>
      <point x="395" y="271" type="line"/>
      <point x="950" y="271" type="line"/>
      <point x="950" y="0" type="line"/>
      <point x="1245" y="0" type="line"/>
    </contour>
  </outline>
</glyph>
<glyph name="J" format="1">
  <advance width="740"/>
  <unicode hex="004A"/>
  <outline>
    <contour>
      <point x="35" y="33" type="line"/>
      <point x="124" y="-2"/>
      <point x="205" y="-14"/>
      <point x="302" y="-14" type="curve" smooth="yes"/>
      <point x="523" y="-14"/>
      <point x="645" y="105"/>
      <point x="645" y="307" type="curve" smooth="yes"/>
      <point x="645" y="709" type="line"/>
      <point x="350" y="709" type="line"/>
      <point x="350" y="315" type="line" smooth="yes"/>
      <point x="350" y="195"/>
      <point x="288" y="165"/>
      <point x="244" y="165" type="curve" smooth="yes"/>
      <point x="190" y="165"/>
      <point x="140" y="191"/>
      <point x="99" y="228" type="curve"/>
    </contour>
  </outline>
</glyph>
<glyph name="K" format="1">
  <advance width="1099"/>
  <unicode hex="004B"/>
  <outline>
    <contour>
      <point x="394" y="420" type="line"/>
      <point x="395" y="469"/>
      <point x="395" y="515"/>
      <point x="395" y="560" type="curve" smooth="yes"/>
      <point x="395" y="709" type="line"/>
      <point x="100" y="709" type="line"/>
      <point x="100" y="0" type="line"/>
      <point x="395" y="0" type="line"/>
      <point x="395" y="141" type="line"/>
      <point x="523" y="258" type="line"/>
      <point x="699" y="0" type="line"/>
      <point x="1069" y="0" type="line"/>
      <point x="714" y="420" type="line"/>
      <point x="1032" y="709" type="line"/>
      <point x="659" y="709" type="line"/>
      <point x="520" y="560" type="line" smooth="yes"/>
      <point x="477" y="514"/>
      <point x="437" y="469"/>
      <point x="396" y="420" type="curve"/>
    </contour>
  </outline>
</glyph>
<glyph name="L" format="1">
  <advance width="1064"/>
  <unicode hex="004C"/>
  <outline>
    <contour>
      <point x="1024" y="179" type="line"/>
      <point x="395" y="179" type="line"/>
      <point x="395" y="709" type="line"/>
      <point x="100" y="709" type="line"/>
      <point x="100" y="0" type="line"/>
      <point x="1024" y="0" type="line"/>
    </contour>
  </outline>
</glyph>
<glyph name="M" format="1">
  <advance width="1795"/>
  <unicode hex="004D"/>
  <outline>
    <contour>
      <point x="897" y="261" type="line"/>
      <point x="829" y="377"/>
      <point x="748" y="492"/>
      <point x="597" y="709" type="curve"/>
      <point x="100" y="709" type="line"/>
      <point x="100" y="0" type="line"/>
      <point x="384" y="0" type="line"/>
      <point x="384" y="268"/>
      <point x="384" y="449"/>
      <point x="384" y="560" type="curve"/>
      <point x="393" y="560" type="line"/>
      <point x="462" y="449"/>
      <point x="592" y="266"/>
      <point x="775" y="0" type="curve"/>
      <point x="1021" y="0" type="line"/>
      <point x="1222" y="290"/>
      <point x="1333" y="448"/>
      <point x="1403" y="560" type="curve"/>
      <point x="1412" y="560" type="line"/>
      <point x="1412" y="446"/>
      <point x="1412" y="266"/>
      <point x="1412" y="0" type="curve"/>
      <point x="1696" y="0" type="line"/>
      <point x="1696" y="709" type="line"/>
      <point x="1199" y="709" type="line"/>
      <point x="1049" y="494"/>
      <point x="968" y="378"/>
      <point x="899" y="261" type="curve"/>
    </contour>
  </outline>
</glyph>
<glyph name="N" format="1">
  <advance width="1281"/>
  <unicode hex="004E"/>
  <outline>
    <contour>
      <point x="897" y="177" type="line"/>
      <point x="849" y="273"/>
      <point x="737" y="449"/>
      <point x="563" y="709" type="curve"/>
      <point x="100" y="709" type="line"/>
      <point x="100" y="0" type="line"/>
      <point x="385" y="0" type="line"/>
      <point x="385" y="262"/>
      <point x="384" y="435"/>
      <point x="379" y="532" type="curve"/>
      <point x="385" y="532" type="line"/>
      <point x="433" y="436"/>
      <point x="544" y="261"/>
      <point x="719" y="0" type="curve"/>
      <point x="1181" y="0" type="line"/>
      <point x="1181" y="709" type="line"/>
      <point x="896" y="709" type="line"/>
      <point x="896" y="448"/>
      <point x="897" y="274"/>
      <point x="902" y="177" type="curve"/>
    </contour>
  </outline>
</glyph>
<glyph name="P" format="1">
  <advance width="1178"/>
  <unicode hex="0050"/>
  <outline>
    <contour>
      <point x="395" y="0" type="line"/>
      <point x="395" y="198" type="line"/>
      <point x="635" y="198" type="line"/>
      <point x="936" y="198"/>
      <point x="1118" y="253"/>
      <point x="1118" y="463" type="curve" smooth="yes"/>
      <point x="1118" y="595"/>
      <point x="1013" y="709"/>
      <point x="658" y="709" type="curve" smooth="yes"/>
      <point x="100" y="709" type="line"/>
      <point x="100" y="0" type="line"/>
    </contour>
    <contour>
      <point x="395" y="377" type="line"/>
      <point x="395" y="530" type="line"/>
      <point x="607" y="530" type="line" smooth="yes"/>
      <point x="728" y="530"/>
      <point x="814" y="508"/>
      <point x="814" y="459" type="curve" smooth="yes"/>
      <point x="814" y="402"/>
      <point x="735" y="377"/>
      <point x="607" y="377" type="curve" smooth="yes"/>
    </contour>
  </outline>
</glyph>
<glyph name="Q" format="1">
  <advance width="1418"/>
  <unicode hex="0051"/>
  <outline>
    <contour>
      <point x="1137" y="64" type="line"/>
      <point x="1274" y="127"/>
      <point x="1358" y="225"/>
      <point x="1358" y="355" type="curve" smooth="yes"/>
      <point x="1358" y="595"/>
      <point x="1076" y="723"/>
      <point x="709" y="723" type="curve" smooth="yes"/>
      <point x="342" y="723"/>
      <point x="60" y="595"/>
      <point x="60" y="355" type="curve" smooth="yes"/>
      <point x="60" y="115"/>
      <point x="342" y="-14"/>
      <point x="709" y="-14" type="curve" smooth="yes"/>
      <point x="769" y="-14"/>
      <point x="826" y="-11"/>
      <point x="877" y="-4" type="curve"/>
      <point x="1196" y="-208" type="line"/>
      <point x="1336" y="-31" type="line"/>
    </contour>
    <contour>
      <point x="709" y="544" type="line"/>
      <point x="874" y="544"/>
      <point x="1054" y="484"/>
      <point x="1054" y="355" type="curve" smooth="yes"/>
      <point x="1054" y="226"/>
      <point x="874" y="165"/>
      <point x="709" y="165" type="curve" smooth="yes"/>
      <point x="544" y="165"/>
      <point x="364" y="226"/>
      <point x="364" y="355" type="curve" smooth="yes"/>
      <point x="364" y="484"/>
      <point x="544" y="544"/>
      <point x="708" y="544" type="curve"/>
    </contour>
  </outline>
</glyph>
<glyph name="R" format="1">
  <advance width="1191"/>
  <unicode hex="0052"/>
  <outline>
    <contour>
      <point x="1156" y="0" type="line"/>
      <point x="724" y="0" type="line"/>
      <point x="479" y="198" type="line"/>
      <point x="395" y="198" type="line"/>
      <point x="395" y="0" type="line"/>
      <point x="100" y="0" type="line"/>
      <point x="100" y="709" type="line"/>
      <point x="610" y="709" type="line" smooth="yes"/>
      <point x="760" y="709"/>
      <point x="1095" y="704"/>
      <point x="1095" y="465" type="curve" smooth="yes"/>
      <point x="1095" y="330"/>
      <point x="991" y="253"/>
      <point x="815" y="221" type="curve"/>
    </contour>
    <contour>
      <point x="395" y="377" type="line"/>
      <point x="583" y="377" type="line" smooth="yes"/>
      <point x="717" y="377"/>
      <point x="791" y="406"/>
      <point x="791" y="452" type="curve" smooth="yes"/>
      <point x="791" y="506"/>
      <point x="713" y="530"/>
      <point x="584" y="530" type="curve" smooth="yes"/>
      <point x="395" y="530" type="line"/>
    </contour>
  </outline>
</glyph>
<glyph name="S" format="1">
  <advance width="1001"/>
  <unicode hex="0053"/>
  <outline>
    <contour>
      <point x="913" y="511" type="line"/>
      <point x="868" y="642"/>
      <point x="712" y="723"/>
      <point x="513" y="723" type="curve" smooth="yes"/>
      <point x="359" y="723"/>
      <point x="251" y="697"/>
      <point x="183" y="651" type="curve" smooth="yes"/>
      <point x="122" y="610"/>
      <point x="94" y="554"/>
      <point x="94" y="488" type="curve" smooth="yes"/>
      <point x="94" y="383"/>
      <point x="163" y="336"/>
      <point x="230" y="305" type="curve" smooth="yes"/>
      <point x="288" y="278"/>
      <point x="370" y="264"/>
      <point x="443" y="254" type="curve" smooth="yes"/>
      <point x="502" y="246"/>
      <point x="548" y="241"/>
      <point x="590" y="233" type="curve" smooth="yes"/>
      <point x="629" y="226"/>
      <point x="637" y="215"/>
      <point x="637" y="205" type="curve" smooth="yes"/>
      <point x="637" y="196"/>
      <point x="631" y="187"/>
      <point x="612" y="179" type="curve" smooth="yes"/>
      <point x="592" y="171"/>
      <point x="558" y="165"/>
      <point x="502" y="165" type="curve" smooth="yes"/>
      <point x="437" y="165"/>
      <point x="392" y="186"/>
      <point x="370" y="225" type="curve"/>
      <point x="60" y="202" type="line"/>
      <point x="96" y="80"/>
      <point x="232" y="-14"/>
      <point x="490" y="-14" type="curve" smooth="yes"/>
      <point x="652" y="-14"/>
      <point x="763" y="17"/>
      <point x="835" y="63" type="curve" smooth="yes"/>
      <point x="910" y="111"/>
      <point x="941" y="177"/>
      <point x="941" y="244" type="curve" smooth="yes"/>
      <point x="941" y="312"/>
      <point x="904" y="363"/>
      <point x="837" y="400" type="curve" smooth="yes"/>
      <point x="789" y="426"/>
      <point x="724" y="442"/>
      <point x="639" y="453" type="curve" smooth="yes"/>
      <point x="551" y="465"/>
      <point x="512" y="468"/>
      <point x="470" y="474" type="curve" smooth="yes"/>
      <point x="422" y="481"/>
      <point x="393" y="491"/>
      <point x="393" y="513" type="curve" smooth="yes"/>
      <point x="393" y="522"/>
      <point x="401" y="529"/>
      <point x="414" y="534" type="curve" smooth="yes"/>
      <point x="434" y="542"/>
      <point x="466" y="544"/>
      <point x="490" y="544" type="curve" smooth="yes"/>
      <point x="545" y="544"/>
      <point x="583" y="523"/>
      <point x="608" y="496" type="curve"/>
    </contour>
  </outline>
</glyph>
<glyph name="T" format="1">
  <advance width="1036"/>
  <unicode hex="0054"/>
  <outline>
    <contour>
      <point x="1001" y="709" type="line"/>
      <point x="35" y="709" type="line"/>
      <point x="35" y="530" type="line"/>
      <point x="371" y="530" type="line"/>
      <point x="371" y="0" type="line"/>
      <point x="666" y="0" type="line"/>
      <point x="666" y="530" type="line"/>
      <point x="1001" y="530" type="line"/>
    </contour>
  </outline>
</glyph>
<glyph name="U" format="1">
  <advance width="1327"/>
  <unicode hex="0055"/>
  <outline>
    <contour>
      <point x="663" y="-10" type="curve" smooth="yes"/>
      <point x="1034" y="-10"/>
      <point x="1267" y="134"/>
      <point x="1267" y="433" type="curve" smooth="yes"/>
      <point x="1267" y="800" type="line"/>
      <point x="836" y="800" type="line"/>
      <point x="836" y="463" type="line" smooth="yes"/>
      <point x="836" y="337"/>
      <point x="770" y="284"/>
      <point x="664" y="284" type="curve" smooth="yes"/>
      <point x="558" y="284"/>
      <point x="492" y="337"/>
      <point x="492" y="463" type="curve" smooth="yes"/>
      <point x="492" y="800" type="line"/>
      <point x="60" y="800" type="line"/>
      <point x="60" y="433" type="line" smooth="yes"/>
      <point x="60" y="134"/>
      <point x="292" y="-10"/>
    </contour>
  </outline>
</glyph>
<glyph name="V" format="1">
  <advance width="1230"/>
  <unicode hex="0056"/>
  <outline>
    <contour>
      <point x="611" y="189" type="line"/>
      <point x="586" y="245"/>
      <point x="559" y="297"/>
      <point x="535" y="348" type="curve" smooth="yes"/>
      <point x="365" y="709" type="line"/>
      <point x="35" y="709" type="line"/>
      <point x="431" y="0" type="line"/>
      <point x="805" y="0" type="line"/>
      <point x="1201" y="709" type="line"/>
      <point x="871" y="709" type="line"/>
      <point x="699" y="348" type="line" smooth="yes"/>
      <point x="673" y="294"/>
      <point x="649" y="244"/>
      <point x="623" y="189" type="curve"/>
    </contour>
  </outline>
</glyph>
<glyph name="W" format="1">
  <advance width="1999"/>
  <unicode hex="0057"/>
  <outline>
    <contour>
      <point x="1004" y="486" type="line"/>
      <point x="1040" y="382"/>
      <point x="1069" y="303"/>
      <point x="1099" y="231" type="curve" smooth="yes"/>
      <point x="1194" y="0" type="line"/>
      <point x="1596" y="0" type="line"/>
      <point x="1970" y="709" type="line"/>
      <point x="1642" y="709" type="line"/>
      <point x="1528" y="452" type="line" smooth="yes"/>
      <point x="1491" y="368"/>
      <point x="1452" y="279"/>
      <point x="1411" y="173" type="curve"/>
      <point x="1409" y="173" type="line"/>
      <point x="1370" y="276"/>
      <point x="1330" y="365"/>
      <point x="1292" y="451" type="curve" smooth="yes"/>
      <point x="1179" y="709" type="line"/>
      <point x="825" y="709" type="line"/>
      <point x="712" y="452" type="line" smooth="yes"/>
      <point x="675" y="368"/>
      <point x="634" y="281"/>
      <point x="595" y="173" type="curve"/>
      <point x="593" y="173" type="line"/>
      <point x="554" y="279"/>
      <point x="513" y="366"/>
      <point x="476" y="450" type="curve" smooth="yes"/>
      <point x="362" y="709" type="line"/>
      <point x="34" y="709" type="line"/>
      <point x="408" y="0" type="line"/>
      <point x="810" y="0" type="line"/>
      <point x="905" y="229" type="line" smooth="yes"/>
      <point x="934" y="299"/>
      <point x="964" y="382"/>
      <point x="1000" y="486" type="curve"/>
    </contour>
  </outline>
</glyph>
<glyph name="X" format="1">
  <advance width="1116"/>
  <unicode hex="0058"/>
  <outline>
    <contour>
      <point x="584" y="524" type="line"/>
      <point x="582" y="524" type="line"/>
      <point x="435" y="709" type="line"/>
      <point x="62" y="709" type="line"/>
      <point x="420" y="353" type="line"/>
      <point x="55" y="0" type="line"/>
      <point x="453" y="0" type="line"/>
      <point x="581" y="172" type="line"/>
      <point x="584" y="172" type="line"/>
      <point x="713" y="0" type="line"/>
      <point x="1111" y="0" type="line"/>
      <point x="746" y="353" type="line"/>
      <point x="1104" y="709" type="line"/>
      <point x="730" y="709" type="line"/>
    </contour>
  </outline>
</glyph>
<glyph name="Y" format="1">
  <advance width="1140"/>
  <unicode hex="0059"/>
  <outline>
    <contour>
      <point x="1110" y="709" type="line"/>
      <point x="773" y="709" type="line"/>
      <point x="676" y="557" type="line" smooth="yes"/>
      <point x="643" y="506"/>
      <point x="609" y="454"/>
      <point x="574" y="396" type="curve"/>
      <point x="567" y="396" type="line"/>
      <point x="534" y="453"/>
      <point x="499" y="507"/>
      <point x="467" y="559" type="curve" smooth="yes"/>
      <point x="375" y="709" type="line"/>
      <point x="30" y="709" type="line"/>
      <point x="423" y="206" type="line"/>
      <point x="423" y="0" type="line"/>
      <point x="718" y="0" type="line"/>
      <point x="718" y="206" type="line"/>
    </contour>
  </outline>
</glyph>
<glyph name="Z" format="1">
  <advance width="1070"/>
  <unicode hex="005A"/>
  <outline>
    <contour>
      <point x="96" y="0" type="line"/>
      <point x="983" y="0" type="line"/>
      <point x="983" y="179" type="line"/>
      <point x="514" y="179" type="line"/>
      <point x="944" y="582" type="line"/>
      <point x="944" y="709" type="line"/>
      <point x="124" y="709" type="line"/>
      <point x="124" y="530" type="line"/>
      <point x="529" y="530" type="line"/>
      <point x="96" y="124" type="line"/>
    </contour>
  </outline>
</glyph>
<glyph name="bracketleft" format="1">
  <advance width="776"/>
  <unicode hex="005B"/>
  <outline>
    <contour>
      <point x="713" y="-156" type="line"/>
      <point x="713" y="4" type="line"/>
      <point x="424" y="4" type="line"/>
      <point x="424" y="579" type="line"/>
      <point x="713" y="579" type="line"/>
      <point x="713" y="739" type="line"/>
      <point x="144" y="739" type="line"/>
      <point x="144" y="-156" type="line"/>
    </contour>
  </outline>
</glyph>
<glyph name="backslash" format="1">
  <advance width="787"/>
  <unicode hex="005C"/>
  <outline>
    <contour>
      <point x="-17" y="739" type="line"/>
      <point x="557" y="-12" type="line"/>
      <point x="767" y="-12" type="line"/>
      <point x="193" y="739" type="line"/>
    </contour>
  </outline>
</glyph>
<glyph name="bracketright" format="1">
  <advance width="776"/>
  <unicode hex="005D"/>
  <outline>
    <contour>
      <point x="28" y="-156" type="line"/>
      <point x="597" y="-156" type="line"/>
      <point x="597" y="739" type="line"/>
      <point x="28" y="739" type="line"/>
      <point x="28" y="579" type="line"/>
      <point x="317" y="579" type="line"/>
      <point x="317" y="4" type="line"/>
      <point x="28" y="4" type="line"/>
    </contour>
  </outline>
</glyph>
<glyph name="underscore" format="1">
  <advance width="900"/>
  <unicode hex="005F"/>
  <outline>
    <contour>
      <point x="900" y="-125" type="line"/>
      <point x="900" y="-75" type="line"/>
      <point x="0" y="-75" type="line"/>
      <point x="0" y="-125" type="line"/>
    </contour>
  </outline>
</glyph>
<glyph name="a" format="1">
  <advance width="1120"/>
  <unicode hex="0061"/>
  <outline>
    <contour>
      <point x="997" y="0" type="line"/>
      <point x="997" y="15" type="line"/>
      <point x="977" y="20"/>
      <point x="974" y="34"/>
      <point x="974" y="90" type="curve" smooth="yes"/>
      <point x="974" y="275" type="line" smooth="yes"/>
      <point x="974" y="496"/>
      <point x="812" y="544"/>
      <point x="573" y="544" type="curve" smooth="yes"/>
      <point x="328" y="544"/>
      <point x="206" y="488"/>
      <point x="118" y="411" type="curve"/>
      <point x="422" y="363" type="line"/>
      <point x="463" y="391"/>
      <point x="506" y="408"/>
      <point x="565" y="408" type="curve" smooth="yes"/>
      <point x="644" y="408"/>
      <point x="693" y="386"/>
      <point x="693" y="344" type="curve" smooth="yes"/>
      <point x="693" y="334" type="line"/>
      <point x="186" y="316"/>
      <point x="65" y="262"/>
      <point x="65" y="153" type="curve" smooth="yes"/>
      <point x="65" y="42"/>
      <point x="189" y="-12"/>
      <point x="424" y="-12" type="curve" smooth="yes"/>
      <point x="551" y="-12"/>
      <point x="647" y="13"/>
      <point x="699" y="30" type="curve"/>
      <point x="702" y="30" type="line"/>
      <point x="705" y="15"/>
      <point x="708" y="4"/>
      <point x="711" y="0" type="curve"/>
    </contour>
    <contour>
      <point x="694" y="149" type="line"/>
      <point x="607" y="128"/>
      <point x="520" y="121"/>
      <point x="452" y="121" type="curve" smooth="yes"/>
      <point x="397" y="121"/>
      <point x="353" y="131"/>
      <point x="353" y="157" type="curve" smooth="yes"/>
      <point x="353" y="191"/>
      <point x="428" y="209"/>
      <point x="694" y="225" type="curve"/>
    </contour>
  </outline>
</glyph>
<glyph name="b" format="1">
  <advance width="1102"/>
  <unicode hex="0062"/>
  <outline>
    <contour>
      <point x="95" y="0" type="line"/>
      <point x="375" y="0" type="line"/>
      <point x="374" y="32" type="line"/>
      <point x="378" y="32" type="line"/>
      <point x="455" y="4"/>
      <point x="538" y="-12"/>
      <point x="632" y="-12" type="curve" smooth="yes"/>
      <point x="935" y="-12"/>
      <point x="1057" y="133"/>
      <point x="1057" y="267" type="curve" smooth="yes"/>
      <point x="1057" y="468"/>
      <point x="819" y="544"/>
      <point x="648" y="544" type="curve" smooth="yes"/>
      <point x="529" y="544"/>
      <point x="453" y="522"/>
      <point x="380" y="497" type="curve"/>
      <point x="375" y="497" type="line"/>
      <point x="375" y="727" type="line"/>
      <point x="95" y="727" type="line"/>
    </contour>
    <contour>
      <point x="375" y="332" type="line"/>
      <point x="436" y="360"/>
      <point x="519" y="389"/>
      <point x="607" y="389" type="curve" smooth="yes"/>
      <point x="716" y="389"/>
      <point x="769" y="333"/>
      <point x="769" y="267" type="curve" smooth="yes"/>
      <point x="769" y="197"/>
      <point x="706" y="143"/>
      <point x="610" y="143" type="curve" smooth="yes"/>
      <point x="518" y="143"/>
      <point x="434" y="166"/>
      <point x="375" y="197" type="curve"/>
    </contour>
  </outline>
</glyph>
<glyph name="c" format="1">
  <advance width="1133"/>
  <unicode hex="0063"/>
  <outline>
    <contour>
      <point x="1088" y="351" type="line"/>
      <point x="1026" y="430"/>
      <point x="878" y="544"/>
      <point x="578" y="544" type="curve" smooth="yes"/>
      <point x="246" y="544"/>
      <point x="45" y="442"/>
      <point x="45" y="266" type="curve" smooth="yes"/>
      <point x="45" y="78"/>
      <point x="257" y="-12"/>
      <point x="578" y="-12" type="curve" smooth="yes"/>
      <point x="809" y="-12"/>
      <point x="998" y="64"/>
      <point x="1086" y="172" type="curve"/>
      <point x="784" y="220" type="line"/>
      <point x="731" y="175"/>
      <point x="668" y="143"/>
      <point x="574" y="143" type="curve" smooth="yes"/>
      <point x="448" y="143"/>
      <point x="333" y="187"/>
      <point x="333" y="264" type="curve" smooth="yes"/>
      <point x="333" y="336"/>
      <point x="420" y="389"/>
      <point x="575" y="389" type="curve" smooth="yes"/>
      <point x="666" y="389"/>
      <point x="736" y="353"/>
      <point x="787" y="314" type="curve"/>
    </contour>
  </outline>
</glyph>
<glyph name="d" format="1">
  <advance width="1102"/>
  <unicode hex="0064"/>
  <outline>
    <contour>
      <point x="728" y="32" type="line"/>
      <point x="727" y="0" type="line"/>
      <point x="1007" y="0" type="line"/>
      <point x="1007" y="727" type="line"/>
      <point x="727" y="727" type="line"/>
      <point x="727" y="497" type="line"/>
      <point x="722" y="497" type="line"/>
      <point x="651" y="523"/>
      <point x="562" y="544"/>
      <point x="454" y="544" type="curve" smooth="yes"/>
      <point x="283" y="544"/>
      <point x="45" y="468"/>
      <point x="45" y="267" type="curve" smooth="yes"/>
      <point x="45" y="133"/>
      <point x="167" y="-12"/>
      <point x="470" y="-12" type="curve" smooth="yes"/>
      <point x="564" y="-12"/>
      <point x="647" y="4"/>
      <point x="724" y="32" type="curve"/>
    </contour>
    <contour>
      <point x="492" y="143" type="line"/>
      <point x="389" y="143"/>
      <point x="333" y="196"/>
      <point x="333" y="267" type="curve" smooth="yes"/>
      <point x="333" y="332"/>
      <point x="384" y="389"/>
      <point x="495" y="389" type="curve" smooth="yes"/>
      <point x="587" y="389"/>
      <point x="668" y="359"/>
      <point x="727" y="332" type="curve"/>
      <point x="727" y="197" type="line"/>
      <point x="668" y="166"/>
      <point x="588" y="143"/>
      <point x="493" y="143" type="curve"/>
    </contour>
  </outline>
</glyph>
<glyph name="e" format="1">
  <advance width="1091"/>
  <unicode hex="0065"/>
  <outline>
    <contour>
      <point x="1040" y="208" type="line"/>
      <point x="1040" y="293"/>
      <point x="995" y="394"/>
      <point x="890" y="462" type="curve" smooth="yes"/>
      <point x="798" y="521"/>
      <point x="692" y="544"/>
      <point x="546" y="544" type="curve" smooth="yes"/>
      <point x="377" y="544"/>
      <point x="255" y="512"/>
      <point x="174" y="464" type="curve" smooth="yes"/>
      <point x="85" y="411"/>
      <point x="45" y="338"/>
      <point x="45" y="264" type="curve" smooth="yes"/>
      <point x="45" y="189"/>
      <point x="79" y="113"/>
      <point x="174" y="61" type="curve" smooth="yes"/>
      <point x="254" y="17"/>
      <point x="377" y="-12"/>
      <point x="547" y="-12" type="curve" smooth="yes"/>
      <point x="686" y="-12"/>
      <point x="788" y="9"/>
      <point x="869" y="40" type="curve" smooth="yes"/>
      <point x="943" y="68"/>
      <point x="1004" y="100"/>
      <point x="1041" y="132" type="curve"/>
      <point x="727" y="158" type="line"/>
      <point x="674" y="137"/>
      <point x="616" y="124"/>
      <point x="544" y="124" type="curve" smooth="yes"/>
      <point x="442" y="124"/>
      <point x="371" y="158"/>
      <point x="334" y="208" type="curve"/>
    </contour>
    <contour>
      <point x="333" y="328" type="line"/>
      <point x="374" y="380"/>
      <point x="455" y="408"/>
      <point x="540" y="408" type="curve" smooth="yes"/>
      <point x="622" y="408"/>
      <point x="702" y="386"/>
      <point x="750" y="328" type="curve"/>
    </contour>
  </outline>
</glyph>
<glyph name="f" format="1">
  <advance width="701"/>
  <unicode hex="0066"/>
  <outline>
    <contour>
      <point x="758" y="711" type="line"/>
      <point x="725" y="721"/>
      <point x="688" y="728"/>
      <point x="653" y="732" type="curve" smooth="yes"/>
      <point x="606" y="738"/>
      <point x="562" y="739"/>
      <point x="527" y="739" type="curve" smooth="yes"/>
      <point x="400" y="739"/>
      <point x="320" y="718"/>
      <point x="270" y="682" type="curve" smooth="yes"/>
      <point x="232" y="654"/>
      <point x="212" y="610"/>
      <point x="212" y="543" type="curve" smooth="yes"/>
      <point x="212" y="532" type="line"/>
      <point x="108" y="532" type="line"/>
      <point x="108" y="377" type="line"/>
      <point x="212" y="377" type="line"/>
      <point x="212" y="0" type="line"/>
      <point x="492" y="0" type="line"/>
      <point x="492" y="377" type="line"/>
      <point x="614" y="377" type="line"/>
      <point x="614" y="532" type="line"/>
      <point x="492" y="532" type="line"/>
      <point x="492" y="533" type="line" smooth="yes"/>
      <point x="492" y="544"/>
      <point x="498" y="558"/>
      <point x="511" y="569" type="curve" smooth="yes"/>
      <point x="524" y="580"/>
      <point x="544" y="588"/>
      <point x="574" y="588" type="curve" smooth="yes"/>
      <point x="599" y="588"/>
      <point x="627" y="583"/>
      <point x="646" y="576" type="curve" smooth="yes"/>
      <point x="665" y="570"/>
      <point x="681" y="560"/>
      <point x="692" y="551" type="curve"/>
    </contour>
  </outline>
</glyph>
<glyph name="g" format="1">
  <advance width="1161"/>
  <unicode hex="0067"/>
  <outline>
    <contour>
      <point x="797" y="502" type="line"/>
      <point x="794" y="502" type="line"/>
      <point x="736" y="522"/>
      <point x="640" y="544"/>
      <point x="550" y="544" type="curve" smooth="yes"/>
      <point x="253" y="544"/>
      <point x="52" y="464"/>
      <point x="52" y="275" type="curve" smooth="yes"/>
      <point x="52" y="118"/>
      <point x="189" y="-12"/>
      <point x="554" y="-12" type="curve" smooth="yes"/>
      <point x="659" y="-12"/>
      <point x="748" y="19"/>
      <point x="793" y="40" type="curve"/>
      <point x="796" y="40" type="line"/>
      <point x="796" y="30" type="line" smooth="yes"/>
      <point x="796" y="3"/>
      <point x="776" y="-31"/>
      <point x="737" y="-59" type="curve" smooth="yes"/>
      <point x="700" y="-86"/>
      <point x="646" y="-107"/>
      <point x="573" y="-107" type="curve" smooth="yes"/>
      <point x="500" y="-107"/>
      <point x="453" y="-95"/>
      <point x="421" y="-82" type="curve" smooth="yes"/>
      <point x="387" y="-68"/>
      <point x="369" y="-52"/>
      <point x="356" y="-41" type="curve"/>
      <point x="45" y="-79" type="line"/>
      <point x="120" y="-150"/>
      <point x="206" y="-194"/>
      <point x="292" y="-221" type="curve" smooth="yes"/>
      <point x="396" y="-254"/>
      <point x="498" y="-262"/>
      <point x="583" y="-262" type="curve" smooth="yes"/>
      <point x="758" y="-262"/>
      <point x="890" y="-225"/>
      <point x="965" y="-162" type="curve" smooth="yes"/>
      <point x="1036" y="-102"/>
      <point x="1076" y="-14"/>
      <point x="1076" y="122" type="curve" smooth="yes"/>
      <point x="1076" y="532" type="line"/>
      <point x="796" y="532" type="line"/>
    </contour>
    <contour>
      <point x="340" y="269" type="line"/>
      <point x="340" y="313"/>
      <point x="377" y="389"/>
      <point x="555" y="389" type="curve" smooth="yes"/>
      <point x="665" y="389"/>
      <point x="752" y="350"/>
      <point x="796" y="329" type="curve"/>
      <point x="796" y="210" type="line"/>
      <point x="717" y="167"/>
      <point x="638" y="143"/>
      <point x="554" y="143" type="curve" smooth="yes"/>
      <point x="398" y="143"/>
      <point x="340" y="222"/>
      <point x="340" y="268" type="curve"/>
    </contour>
  </outline>
</glyph>
<glyph name="i" format="1">
  <advance width="490"/>
  <unicode hex="0069"/>
  <outline>
    <contour>
      <point x="385" y="633" type="line"/>
      <point x="385" y="739" type="line"/>
      <point x="105" y="739" type="line"/>
      <point x="105" y="633" type="line"/>
    </contour>
    <contour>
      <point x="385" y="532" type="line"/>
      <point x="105" y="532" type="line"/>
      <point x="105" y="0" type="line"/>
      <point x="385" y="0" type="line"/>
    </contour>
  </outline>
</glyph>
<glyph name="j" format="1">
  <advance width="490"/>
  <unicode hex="006A"/>
  <outline>
    <contour>
      <point x="385" y="633" type="line"/>
      <point x="385" y="739" type="line"/>
      <point x="105" y="739" type="line"/>
      <point x="105" y="633" type="line"/>
    </contour>
    <contour>
      <point x="-275" y="-205" type="line"/>
      <point x="-224" y="-224"/>
      <point x="-174" y="-239"/>
      <point x="-123" y="-248" type="curve" smooth="yes"/>
      <point x="-75" y="-256"/>
      <point x="-26" y="-261"/>
      <point x="22" y="-261" type="curve" smooth="yes"/>
      <point x="145" y="-261"/>
      <point x="237" y="-235"/>
      <point x="298" y="-175" type="curve" smooth="yes"/>
      <point x="355" y="-119"/>
      <point x="385" y="-33"/>
      <point x="385" y="96" type="curve" smooth="yes"/>
      <point x="385" y="532" type="line"/>
      <point x="105" y="532" type="line"/>
      <point x="105" y="93" type="line" smooth="yes"/>
      <point x="105" y="22"/>
      <point x="101" y="-37"/>
      <point x="78" y="-71" type="curve" smooth="yes"/>
      <point x="63" y="-93"/>
      <point x="38" y="-106"/>
      <point x="0" y="-106" type="curve" smooth="yes"/>
      <point x="-22" y="-106"/>
      <point x="-48" y="-98"/>
      <point x="-67" y="-89" type="curve" smooth="yes"/>
      <point x="-94" y="-76"/>
      <point x="-126" y="-56"/>
      <point x="-150" y="-30" type="curve"/>
    </contour>
  </outline>
</glyph>
<glyph name="k" format="1">
  <advance width="1089"/>
  <unicode hex="006B"/>
  <outline>
    <contour>
      <point x="697" y="325" type="line"/>
      <point x="986" y="532" type="line"/>
      <point x="616" y="532" type="line"/>
      <point x="479" y="416" type="line" smooth="yes"/>
      <point x="445" y="387"/>
      <point x="412" y="358"/>
      <point x="378" y="329" type="curve"/>
      <point x="375" y="329" type="line"/>
      <point x="375" y="368"/>
      <point x="375" y="397"/>
      <point x="375" y="426" type="curve" smooth="yes"/>
      <point x="375" y="727" type="line"/>
      <point x="95" y="727" type="line"/>
      <point x="95" y="0" type="line"/>
      <point x="375" y="0" type="line"/>
      <point x="375" y="107" type="line"/>
      <point x="499" y="193" type="line"/>
      <point x="674" y="0" type="line"/>
      <point x="1069" y="0" type="line"/>
    </contour>
  </outline>
</glyph>
<glyph name="l" format="1">
  <advance width="490"/>
  <unicode hex="006C"/>
  <outline>
    <contour>
      <point x="385" y="0" type="line"/>
      <point x="385" y="727" type="line"/>
      <point x="105" y="727" type="line"/>
      <point x="105" y="0" type="line"/>
    </contour>
  </outline>
</glyph>
<glyph name="m" format="1">
  <advance width="1804"/>
  <unicode hex="006D"/>
  <outline>
    <contour>
      <point x="1719" y="0" type="line"/>
      <point x="1719" y="223" type="line" smooth="yes"/>
      <point x="1719" y="344"/>
      <point x="1689" y="424"/>
      <point x="1635" y="474" type="curve" smooth="yes"/>
      <point x="1581" y="524"/>
      <point x="1505" y="544"/>
      <point x="1412" y="544" type="curve" smooth="yes"/>
      <point x="1327" y="544"/>
      <point x="1261" y="531"/>
      <point x="1196" y="509" type="curve" smooth="yes"/>
      <point x="1140" y="490"/>
      <point x="1088" y="465"/>
      <point x="1022" y="430" type="curve"/>
      <point x="1014" y="430" type="line"/>
      <point x="985" y="468"/>
      <point x="954" y="492"/>
      <point x="921" y="509" type="curve" smooth="yes"/>
      <point x="877" y="531"/>
      <point x="816" y="544"/>
      <point x="727" y="544" type="curve" smooth="yes"/>
      <point x="658" y="544"/>
      <point x="585" y="529"/>
      <point x="534" y="512" type="curve" smooth="yes"/>
      <point x="481" y="494"/>
      <point x="431" y="471"/>
      <point x="379" y="442" type="curve"/>
      <point x="373" y="442" type="line"/>
      <point x="375" y="532" type="line"/>
      <point x="95" y="532" type="line"/>
      <point x="95" y="0" type="line"/>
      <point x="375" y="0" type="line"/>
      <point x="375" y="254" type="line"/>
      <point x="417" y="282"/>
      <point x="462" y="307"/>
      <point x="505" y="326" type="curve" smooth="yes"/>
      <point x="559" y="350"/>
      <point x="605" y="357"/>
      <point x="645" y="357" type="curve" smooth="yes"/>
      <point x="681" y="357"/>
      <point x="711" y="347"/>
      <point x="732" y="325" type="curve" smooth="yes"/>
      <point x="757" y="299"/>
      <point x="767" y="260"/>
      <point x="767" y="199" type="curve" smooth="yes"/>
      <point x="767" y="0" type="line"/>
      <point x="1047" y="0" type="line"/>
      <point x="1047" y="251" type="line"/>
      <point x="1090" y="281"/>
      <point x="1135" y="307"/>
      <point x="1178" y="325" type="curve" smooth="yes"/>
      <point x="1229" y="346"/>
      <point x="1278" y="357"/>
      <point x="1315" y="357" type="curve" smooth="yes"/>
      <point x="1352" y="357"/>
      <point x="1383" y="349"/>
      <point x="1405" y="325" type="curve" smooth="yes"/>
      <point x="1427" y="301"/>
      <point x="1439" y="262"/>
      <point x="1439" y="199" type="curve" smooth="yes"/>
      <point x="1439" y="0" type="line"/>
    </contour>
  </outline>
</glyph>
<glyph name="n" format="1">
  <advance width="1176"/>
  <unicode hex="006E"/>
  <outline>
    <contour>
      <point x="1091" y="0" type="line"/>
      <point x="1091" y="235" type="line" smooth="yes"/>
      <point x="1091" y="337"/>
      <point x="1065" y="414"/>
      <point x="1012" y="465" type="curve" smooth="yes"/>
      <point x="957" y="518"/>
      <point x="871" y="544"/>
      <point x="754" y="544" type="curve" smooth="yes"/>
      <point x="687" y="544"/>
      <point x="620" y="534"/>
      <point x="572" y="518" type="curve" smooth="yes"/>
      <point x="507" y="496"/>
      <point x="433" y="447"/>
      <point x="378" y="378" type="curve"/>
      <point x="373" y="378" type="line"/>
      <point x="375" y="532" type="line"/>
      <point x="95" y="532" type="line"/>
      <point x="95" y="0" type="line"/>
      <point x="375" y="0" type="line"/>
      <point x="375" y="256" type="line"/>
      <point x="431" y="287"/>
      <point x="484" y="312"/>
      <point x="532" y="331" type="curve" smooth="yes"/>
      <point x="574" y="347"/>
      <point x="628" y="359"/>
      <point x="680" y="359" type="curve" smooth="yes"/>
      <point x="730" y="359"/>
      <point x="762" y="342"/>
      <point x="781" y="315" type="curve" smooth="yes"/>
      <point x="805" y="284"/>
      <point x="811" y="240"/>
      <point x="811" y="198" type="curve" smooth="yes"/>
      <point x="811" y="0" type="line"/>
    </contour>
  </outline>
</glyph>
<glyph name="o" format="1">
  <advance width="1158"/>
  <unicode hex="006F"/>
  <outline>
    <contour>
      <point x="1113" y="265" type="line"/>
      <point x="1113" y="408"/>
      <point x="952" y="544"/>
      <point x="579" y="544" type="curve" smooth="yes"/>
      <point x="206" y="544"/>
      <point x="45" y="408"/>
      <point x="45" y="265" type="curve" smooth="yes"/>
      <point x="45" y="108"/>
      <point x="217" y="-12"/>
      <point x="579" y="-12" type="curve" smooth="yes"/>
      <point x="910" y="-12"/>
      <point x="1113" y="89"/>
      <point x="1113" y="264" type="curve"/>
    </contour>
    <contour>
      <point x="579" y="143" type="line"/>
      <point x="473" y="143"/>
      <point x="333" y="175"/>
      <point x="333" y="266" type="curve" smooth="yes"/>
      <point x="333" y="357"/>
      <point x="473" y="389"/>
      <point x="579" y="389" type="curve" smooth="yes"/>
      <point x="685" y="389"/>
      <point x="825" y="357"/>
      <point x="825" y="266" type="curve" smooth="yes"/>
      <point x="825" y="175"/>
      <point x="685" y="143"/>
      <point x="580" y="143" type="curve"/>
    </contour>
  </outline>
</glyph>
<glyph name="p" format="1">
  <advance width="1101"/>
  <unicode hex="0070"/>
  <outline>
    <contour>
      <point x="94" y="-248" type="line"/>
      <point x="374" y="-248" type="line"/>
      <point x="374" y="32" type="line"/>
      <point x="377" y="32" type="line"/>
      <point x="422" y="16"/>
      <point x="459" y="6"/>
      <point x="496" y="0" type="curve" smooth="yes"/>
      <point x="545" y="-8"/>
      <point x="585" y="-12"/>
      <point x="631" y="-12" type="curve" smooth="yes"/>
      <point x="774" y="-12"/>
      <point x="876" y="18"/>
      <point x="951" y="72" type="curve" smooth="yes"/>
      <point x="1017" y="119"/>
      <point x="1056" y="186"/>
      <point x="1056" y="267" type="curve" smooth="yes"/>
      <point x="1056" y="354"/>
      <point x="1009" y="418"/>
      <point x="943" y="463" type="curve" smooth="yes"/>
      <point x="861" y="519"/>
      <point x="760" y="544"/>
      <point x="647" y="544" type="curve" smooth="yes"/>
      <point x="586" y="544"/>
      <point x="537" y="537"/>
      <point x="493" y="529" type="curve" smooth="yes"/>
      <point x="450" y="521"/>
      <point x="416" y="509"/>
      <point x="379" y="497" type="curve"/>
      <point x="373" y="497" type="line"/>
      <point x="374" y="532" type="line"/>
      <point x="94" y="532" type="line"/>
    </contour>
    <contour>
      <point x="374" y="332" type="line"/>
      <point x="413" y="350"/>
      <point x="451" y="364"/>
      <point x="488" y="373" type="curve" smooth="yes"/>
      <point x="534" y="384"/>
      <point x="576" y="389"/>
      <point x="606" y="389" type="curve" smooth="yes"/>
      <point x="655" y="389"/>
      <point x="702" y="377"/>
      <point x="728" y="353" type="curve" smooth="yes"/>
      <point x="751" y="331"/>
      <point x="768" y="304"/>
      <point x="768" y="267" type="curve" smooth="yes"/>
      <point x="768" y="234"/>
      <point x="757" y="208"/>
      <point x="737" y="188" type="curve" smooth="yes"/>
      <point x="708" y="158"/>
      <point x="661" y="143"/>
      <point x="609" y="143" type="curve" smooth="yes"/>
      <point x="570" y="143"/>
      <point x="525" y="148"/>
      <point x="484" y="157" type="curve" smooth="yes"/>
      <point x="437" y="167"/>
      <point x="396" y="185"/>
      <point x="374" y="197" type="curve"/>
    </contour>
  </outline>
</glyph>
<glyph name="q" format="1">
  <advance width="1102"/>
  <unicode hex="0071"/>
  <outline>
    <contour>
      <point x="1007" y="-248" type="line"/>
      <point x="1007" y="531" type="line"/>
      <point x="727" y="531" type="line"/>
      <point x="727" y="497" type="line"/>
      <point x="722" y="497" type="line"/>
      <point x="690" y="509"/>
      <point x="650" y="521"/>
      <point x="604" y="530" type="curve" smooth="yes"/>
      <point x="558" y="539"/>
      <point x="506" y="544"/>
      <point x="454" y="544" type="curve" smooth="yes"/>
      <point x="352" y="544"/>
      <point x="231" y="518"/>
      <point x="148" y="457" type="curve" smooth="yes"/>
      <point x="77" y="407"/>
      <point x="45" y="338"/>
      <point x="45" y="267" type="curve" smooth="yes"/>
      <point x="45" y="203"/>
      <point x="72" y="140"/>
      <point x="129" y="90" type="curve" smooth="yes"/>
      <point x="196" y="30"/>
      <point x="305" y="-12"/>
      <point x="470" y="-12" type="curve" smooth="yes"/>
      <point x="511" y="-12"/>
      <point x="558" y="-8"/>
      <point x="606" y="0" type="curve" smooth="yes"/>
      <point x="646" y="7"/>
      <point x="687" y="19"/>
      <point x="724" y="32" type="curve"/>
      <point x="727" y="32" type="line"/>
      <point x="727" y="-248" type="line"/>
    </contour>
    <contour>
      <point x="727" y="197" type="line"/>
      <point x="705" y="185"/>
      <point x="664" y="168"/>
      <point x="617" y="157" type="curve" smooth="yes"/>
      <point x="576" y="148"/>
      <point x="531" y="143"/>
      <point x="492" y="143" type="curve" smooth="yes"/>
      <point x="428" y="143"/>
      <point x="389" y="161"/>
      <point x="364" y="187" type="curve" smooth="yes"/>
      <point x="340" y="211"/>
      <point x="333" y="242"/>
      <point x="333" y="267" type="curve" smooth="yes"/>
      <point x="333" y="307"/>
      <point x="348" y="333"/>
      <point x="371" y="353" type="curve" smooth="yes"/>
      <point x="405" y="382"/>
      <point x="457" y="389"/>
      <point x="495" y="389" type="curve" smooth="yes"/>
      <point x="525" y="389"/>
      <point x="567" y="385"/>
      <point x="613" y="373" type="curve" smooth="yes"/>
      <point x="650" y="364"/>
      <point x="688" y="350"/>
      <point x="727" y="332" type="curve"/>
    </contour>
  </outline>
</glyph>
<glyph name="r" format="1">
  <advance width="780"/>
  <unicode hex="0072"/>
  <outline>
    <contour>
      <point x="374" y="463" type="line"/>
      <point x="375" y="532" type="line"/>
      <point x="95" y="532" type="line"/>
      <point x="95" y="0" type="line"/>
      <point x="375" y="0" type="line"/>
      <point x="375" y="288" type="line"/>
      <point x="409" y="311"/>
      <point x="442" y="330"/>
      <point x="474" y="342" type="curve" smooth="yes"/>
      <point x="513" y="357"/>
      <point x="550" y="365"/>
      <point x="575" y="365" type="curve" smooth="yes"/>
      <point x="602" y="365"/>
      <point x="632" y="359"/>
      <point x="656" y="349" type="curve" smooth="yes"/>
      <point x="675" y="341"/>
      <point x="692" y="331"/>
      <point x="704" y="321" type="curve"/>
      <point x="740" y="522" type="line"/>
      <point x="720" y="529"/>
      <point x="701" y="534"/>
      <point x="681" y="538" type="curve" smooth="yes"/>
      <point x="659" y="542"/>
      <point x="636" y="544"/>
      <point x="611" y="544" type="curve" smooth="yes"/>
      <point x="567" y="544"/>
      <point x="526" y="536"/>
      <point x="488" y="521" type="curve" smooth="yes"/>
      <point x="448" y="505"/>
      <point x="413" y="484"/>
      <point x="381" y="463" type="curve"/>
    </contour>
  </outline>
</glyph>
<glyph name="s" format="1">
  <advance width="814"/>
  <unicode hex="0073"/>
  <outline>
    <contour>
      <point x="730" y="412" type="line"/>
      <point x="709" y="449"/>
      <point x="670" y="482"/>
      <point x="619" y="505" type="curve" smooth="yes"/>
      <point x="568" y="528"/>
      <point x="505" y="544"/>
      <point x="421" y="544" type="curve" smooth="yes"/>
      <point x="293" y="544"/>
      <point x="228" y="527"/>
      <point x="168" y="498" type="curve" smooth="yes"/>
      <point x="102" y="466"/>
      <point x="59" y="415"/>
      <point x="59" y="351" type="curve" smooth="yes"/>
      <point x="59" y="312"/>
      <point x="71" y="278"/>
      <point x="113" y="243" type="curve" smooth="yes"/>
      <point x="150" y="212"/>
      <point x="220" y="193"/>
      <point x="282" y="187" type="curve" smooth="yes"/>
      <point x="349" y="181"/>
      <point x="408" y="176"/>
      <point x="434" y="173" type="curve" smooth="yes"/>
      <point x="463" y="170"/>
      <point x="479" y="160"/>
      <point x="479" y="146" type="curve" smooth="yes"/>
      <point x="479" y="139"/>
      <point x="474" y="129"/>
      <point x="464" y="124" type="curve" smooth="yes"/>
      <point x="453" y="118"/>
      <point x="436" y="113"/>
      <point x="412" y="113" type="curve" smooth="yes"/>
      <point x="373" y="113"/>
      <point x="348" y="132"/>
      <point x="332" y="149" type="curve"/>
      <point x="50" y="122" type="line"/>
      <point x="98" y="68"/>
      <point x="141" y="35"/>
      <point x="197" y="15" type="curve" smooth="yes"/>
      <point x="252" y="-5"/>
      <point x="320" y="-12"/>
      <point x="403" y="-12" type="curve" smooth="yes"/>
      <point x="509" y="-12"/>
      <point x="597" y="7"/>
      <point x="659" y="39" type="curve" smooth="yes"/>
      <point x="727" y="74"/>
      <point x="764" y="126"/>
      <point x="764" y="185" type="curve" smooth="yes"/>
      <point x="764" y="231"/>
      <point x="742" y="267"/>
      <point x="705" y="295" type="curve" smooth="yes"/>
      <point x="664" y="326"/>
      <point x="598" y="341"/>
      <point x="511" y="350" type="curve" smooth="yes"/>
      <point x="436" y="358"/>
      <point x="415" y="360"/>
      <point x="385" y="363" type="curve" smooth="yes"/>
      <point x="357" y="366"/>
      <point x="331" y="374"/>
      <point x="331" y="391" type="curve" smooth="yes"/>
      <point x="331" y="402"/>
      <point x="340" y="408"/>
      <point x="348" y="412" type="curve" smooth="yes"/>
      <point x="359" y="417"/>
      <point x="378" y="419"/>
      <point x="401" y="419" type="curve" smooth="yes"/>
      <point x="438" y="419"/>
      <point x="466" y="400"/>
      <point x="478" y="386" type="curve"/>
    </contour>
  </outline>
</glyph>
<glyph name="t" format="1">
  <advance width="809"/>
  <unicode hex="0074"/>
  <outline>
    <contour>
      <point x="185" y="532" type="line"/>
      <point x="71" y="532" type="line"/>
      <point x="71" y="377" type="line"/>
      <point x="185" y="377" type="line"/>
      <point x="185" y="222" type="line" smooth="yes"/>
      <point x="185" y="45"/>
      <point x="293" y="-12"/>
      <point x="510" y="-12" type="curve" smooth="yes"/>
      <point x="595" y="-12"/>
      <point x="698" y="18"/>
      <point x="789" y="61" type="curve"/>
      <point x="690" y="208" type="line"/>
      <point x="659" y="181"/>
      <point x="602" y="143"/>
      <point x="545" y="143" type="curve" smooth="yes"/>
      <point x="475" y="143"/>
      <point x="465" y="199"/>
      <point x="465" y="258" type="curve" smooth="yes"/>
      <point x="465" y="377" type="line"/>
      <point x="645" y="377" type="line"/>
      <point x="645" y="532" type="line"/>
      <point x="465" y="532" type="line"/>
      <point x="465" y="680" type="line"/>
      <point x="185" y="680" type="line"/>
    </contour>
  </outline>
</glyph>
<glyph name="u" format="1">
  <advance width="1203"/>
  <unicode hex="0075"/>
  <outline>
    <contour>
      <point x="85" y="532" type="line"/>
      <point x="85" y="297" type="line" smooth="yes"/>
      <point x="85" y="195"/>
      <point x="111" y="118"/>
      <point x="164" y="67" type="curve" smooth="yes"/>
      <point x="219" y="14"/>
      <point x="320" y="-12"/>
      <point x="437" y="-12" type="curve" smooth="yes"/>
      <point x="532" y="-12"/>
      <point x="626" y="8"/>
      <point x="704" y="35" type="curve" smooth="yes"/>
      <point x="751" y="51"/>
      <point x="792" y="69"/>
      <point x="825" y="87" type="curve"/>
      <point x="830" y="87" type="line"/>
      <point x="828" y="0" type="line"/>
      <point x="1108" y="0" type="line"/>
      <point x="1108" y="532" type="line"/>
      <point x="828" y="532" type="line"/>
      <point x="828" y="266" type="line"/>
      <point x="801" y="247"/>
      <point x="753" y="225"/>
      <point x="697" y="206" type="curve" smooth="yes"/>
      <point x="639" y="186"/>
      <point x="572" y="173"/>
      <point x="511" y="173" type="curve" smooth="yes"/>
      <point x="461" y="173"/>
      <point x="414" y="190"/>
      <point x="395" y="217" type="curve" smooth="yes"/>
      <point x="371" y="248"/>
      <point x="365" y="292"/>
      <point x="365" y="334" type="curve" smooth="yes"/>
      <point x="365" y="532" type="line"/>
    </contour>
  </outline>
</glyph>
<glyph name="v" format="1">
  <advance width="1070"/>
  <unicode hex="0076"/>
  <outline>
    <contour>
      <point x="527" y="149" type="line"/>
      <point x="493" y="233"/>
      <point x="467" y="291"/>
      <point x="437" y="355" type="curve" smooth="yes"/>
      <point x="354" y="532" type="line"/>
      <point x="25" y="532" type="line"/>
      <point x="350" y="0" type="line"/>
      <point x="718" y="0" type="line"/>
      <point x="1043" y="532" type="line"/>
      <point x="714" y="532" type="line"/>
      <point x="632" y="355" type="line" smooth="yes"/>
      <point x="603" y="292"/>
      <point x="577" y="233"/>
      <point x="541" y="149" type="curve"/>
    </contour>
  </outline>
</glyph>
<glyph name="w" format="1">
  <advance width="1660"/>
  <unicode hex="0077"/>
  <outline>
    <contour>
      <point x="833" y="357" type="line"/>
      <point x="850" y="303"/>
      <point x="867" y="250"/>
      <point x="884" y="201" type="curve" smooth="yes"/>
      <point x="954" y="0" type="line"/>
      <point x="1322" y="0" type="line"/>
      <point x="1633" y="532" type="line"/>
      <point x="1317" y="532" type="line"/>
      <point x="1230" y="321" type="line" smooth="yes"/>
      <point x="1206" y="263"/>
      <point x="1184" y="207"/>
      <point x="1158" y="144" type="curve"/>
      <point x="1149" y="144" type="line"/>
      <point x="1130" y="206"/>
      <point x="1111" y="265"/>
      <point x="1092" y="323" type="curve" smooth="yes"/>
      <point x="1023" y="532" type="line"/>
      <point x="635" y="532" type="line"/>
      <point x="567" y="325" type="line" smooth="yes"/>
      <point x="548" y="268"/>
      <point x="529" y="207"/>
      <point x="509" y="144" type="curve"/>
      <point x="500" y="144" type="line"/>
      <point x="475" y="206"/>
      <point x="452" y="263"/>
      <point x="428" y="321" type="curve" smooth="yes"/>
      <point x="341" y="532" type="line"/>
      <point x="25" y="532" type="line"/>
      <point x="336" y="0" type="line"/>
      <point x="704" y="0" type="line"/>
      <point x="775" y="203" type="line" smooth="yes"/>
      <point x="792" y="252"/>
      <point x="807" y="302"/>
      <point x="825" y="357" type="curve"/>
    </contour>
  </outline>
</glyph>
<glyph name="x" format="1">
  <advance width="1130"/>
  <unicode hex="0078"/>
  <outline>
    <contour>
      <point x="1060" y="532" type="line"/>
      <point x="681" y="532" type="line"/>
      <point x="568" y="387" type="line"/>
      <point x="566" y="387" type="line"/>
      <point x="454" y="532" type="line"/>
      <point x="72" y="532" type="line"/>
      <point x="72" y="515" type="line"/>
      <point x="391" y="270" type="line"/>
      <point x="50" y="10" type="line"/>
      <point x="50" y="0" type="line"/>
      <point x="453" y="0" type="line"/>
      <point x="566" y="134" type="line"/>
      <point x="569" y="134" type="line"/>
      <point x="682" y="0" type="line"/>
      <point x="1083" y="0" type="line"/>
      <point x="1083" y="10" type="line"/>
      <point x="742" y="270" type="line"/>
      <point x="1060" y="515" type="line"/>
    </contour>
  </outline>
</glyph>
<glyph name="y" format="1">
  <advance width="1086"/>
  <unicode hex="0079"/>
  <outline>
    <contour>
      <point x="1051" y="532" type="line"/>
      <point x="728" y="532" type="line"/>
      <point x="667" y="386" type="line" smooth="yes"/>
      <point x="645" y="334"/>
      <point x="620" y="280"/>
      <point x="597" y="220" type="curve"/>
      <point x="590" y="220" type="line"/>
      <point x="561" y="271"/>
      <point x="519" y="332"/>
      <point x="485" y="385" type="curve" smooth="yes"/>
      <point x="391" y="532" type="line"/>
      <point x="33" y="532" type="line"/>
      <point x="460" y="12" type="line"/>
      <point x="452" y="-1" type="line" smooth="yes"/>
      <point x="430" y="-37"/>
      <point x="407" y="-63"/>
      <point x="381" y="-80" type="curve" smooth="yes"/>
      <point x="356" y="-98"/>
      <point x="328" y="-106"/>
      <point x="295" y="-106" type="curve" smooth="yes"/>
      <point x="253" y="-106"/>
      <point x="213" y="-96"/>
      <point x="179" y="-82" type="curve" smooth="yes"/>
      <point x="146" y="-69"/>
      <point x="118" y="-52"/>
      <point x="100" y="-38" type="curve"/>
      <point x="25" y="-202" type="line"/>
      <point x="66" y="-219"/>
      <point x="104" y="-231"/>
      <point x="144" y="-241" type="curve" smooth="yes"/>
      <point x="203" y="-255"/>
      <point x="258" y="-261"/>
      <point x="316" y="-261" type="curve" smooth="yes"/>
      <point x="432" y="-261"/>
      <point x="514" y="-233"/>
      <point x="574" y="-196" type="curve" smooth="yes"/>
      <point x="642" y="-155"/>
      <point x="708" y="-75"/>
      <point x="767" y="29" type="curve" smooth="yes"/>
    </contour>
  </outline>
</glyph>
<glyph name="z" format="1">
  <advance width="830"/>
  <unicode hex="007A"/>
  <outline>
    <contour>
      <point x="736" y="532" type="line"/>
      <point x="75" y="532" type="line"/>
      <point x="75" y="377" type="line"/>
      <point x="334" y="377" type="line"/>
      <point x="60" y="104" type="line"/>
      <point x="60" y="0" type="line"/>
      <point x="776" y="0" type="line"/>
      <point x="776" y="155" type="line"/>
      <point x="463" y="155" type="line"/>
      <point x="736" y="427" type="line"/>
    </contour>
  </outline>
</glyph>
<glyph name="braceleft" format="1">
  <advance width="692"/>
  <unicode hex="007B"/>
  <outline>
    <contour>
      <point x="105" y="211" type="line"/>
      <point x="148" y="210"/>
      <point x="176" y="207"/>
      <point x="193" y="196" type="curve" smooth="yes"/>
      <point x="210" y="185"/>
      <point x="217" y="168"/>
      <point x="217" y="138" type="curve" smooth="yes"/>
      <point x="217" y="50" type="line" smooth="yes"/>
      <point x="217" y="-27"/>
      <point x="239" y="-75"/>
      <point x="278" y="-106" type="curve" smooth="yes"/>
      <point x="338" y="-153"/>
      <point x="442" y="-157"/>
      <point x="665" y="-157" type="curve"/>
      <point x="665" y="3" type="line"/>
      <point x="591" y="3"/>
      <point x="549" y="8"/>
      <point x="526" y="24" type="curve" smooth="yes"/>
      <point x="502" y="40"/>
      <point x="497" y="67"/>
      <point x="497" y="110" type="curve" smooth="yes"/>
      <point x="497" y="144" type="line" smooth="yes"/>
      <point x="497" y="202"/>
      <point x="480" y="238"/>
      <point x="448" y="259" type="curve" smooth="yes"/>
      <point x="416" y="280"/>
      <point x="370" y="289"/>
      <point x="312" y="290" type="curve"/>
      <point x="312" y="294" type="line"/>
      <point x="370" y="294"/>
      <point x="416" y="301"/>
      <point x="448" y="323" type="curve" smooth="yes"/>
      <point x="480" y="345"/>
      <point x="497" y="381"/>
      <point x="497" y="438" type="curve" smooth="yes"/>
      <point x="497" y="472" type="line" smooth="yes"/>
      <point x="497" y="516"/>
      <point x="502" y="542"/>
      <point x="526" y="558" type="curve" smooth="yes"/>
      <point x="549" y="574"/>
      <point x="591" y="579"/>
      <point x="665" y="579" type="curve"/>
      <point x="665" y="739" type="line"/>
      <point x="442" y="739"/>
      <point x="338" y="735"/>
      <point x="278" y="688" type="curve" smooth="yes"/>
      <point x="239" y="657"/>
      <point x="217" y="609"/>
      <point x="217" y="532" type="curve" smooth="yes"/>
      <point x="217" y="444" type="line" smooth="yes"/>
      <point x="217" y="415"/>
      <point x="210" y="397"/>
      <point x="193" y="386" type="curve" smooth="yes"/>
      <point x="176" y="375"/>
      <point x="148" y="372"/>
      <point x="105" y="371" type="curve"/>
    </contour>
  </outline>
</glyph>
<glyph name="braceright" format="1">
  <advance width="692"/>
  <unicode hex="007D"/>
  <outline>
    <contour>
      <point x="587" y="371" type="line"/>
      <point x="544" y="372"/>
      <point x="516" y="375"/>
      <point x="499" y="386" type="curve" smooth="yes"/>
      <point x="482" y="397"/>
      <point x="475" y="415"/>
      <point x="475" y="444" type="curve" smooth="yes"/>
      <point x="475" y="532" type="line" smooth="yes"/>
      <point x="475" y="609"/>
      <point x="453" y="657"/>
      <point x="414" y="688" type="curve" smooth="yes"/>
      <point x="354" y="735"/>
      <point x="250" y="739"/>
      <point x="27" y="739" type="curve"/>
      <point x="27" y="579" type="line"/>
      <point x="101" y="579"/>
      <point x="143" y="574"/>
      <point x="166" y="558" type="curve" smooth="yes"/>
      <point x="190" y="542"/>
      <point x="195" y="516"/>
      <point x="195" y="472" type="curve" smooth="yes"/>
      <point x="195" y="438" type="line" smooth="yes"/>
      <point x="195" y="381"/>
      <point x="212" y="345"/>
      <point x="244" y="323" type="curve" smooth="yes"/>
      <point x="276" y="301"/>
      <point x="322" y="294"/>
      <point x="380" y="294" type="curve"/>
      <point x="380" y="290" type="line"/>
      <point x="322" y="289"/>
      <point x="276" y="280"/>
      <point x="244" y="259" type="curve" smooth="yes"/>
      <point x="212" y="238"/>
      <point x="195" y="202"/>
      <point x="195" y="144" type="curve" smooth="yes"/>
      <point x="195" y="110" type="line" smooth="yes"/>
      <point x="195" y="67"/>
      <point x="190" y="40"/>
      <point x="166" y="24" type="curve" smooth="yes"/>
      <point x="143" y="8"/>
      <point x="101" y="3"/>
      <point x="27" y="3" type="curve"/>
      <point x="27" y="-157" type="line"/>
      <point x="250" y="-157"/>
      <point x="354" y="-153"/>
      <point x="414" y="-106" type="curve" smooth="yes"/>
      <point x="453" y="-75"/>
      <point x="475" y="-27"/>
      <point x="475" y="50" type="curve" smooth="yes"/>
      <point x="475" y="138" type="line" smooth="yes"/>
      <point x="475" y="168"/>
      <point x="482" y="185"/>
      <point x="499" y="196" type="curve" smooth="yes"/>
      <point x="516" y="207"/>
      <point x="544" y="210"/>
      <point x="587" y="211" type="curve"/>
    </contour>
  </outline>
</glyph>
<glyph name="paragraph" format="1">
  <advance width="1073"/>
  <unicode hex="00B6"/>
  <outline>
    <contour>
      <point x="371" y="-152" type="line"/>
      <point x="536" y="-152" type="line"/>
      <point x="536" y="589" type="line"/>
      <point x="664" y="589" type="line"/>
      <point x="664" y="-152" type="line"/>
      <point x="829" y="-152" type="line"/>
      <point x="829" y="709" type="line"/>
      <point x="407" y="709" type="line" smooth="yes"/>
      <point x="268" y="709"/>
      <point x="202" y="693"/>
      <point x="148" y="647" type="curve" smooth="yes"/>
      <point x="99" y="605"/>
      <point x="82" y="548"/>
      <point x="82" y="495" type="curve" smooth="yes"/>
      <point x="82" y="427"/>
      <point x="107" y="375"/>
      <point x="153" y="339" type="curve" smooth="yes"/>
      <point x="202" y="300"/>
      <point x="276" y="280"/>
      <point x="371" y="281" type="curve"/>
    </contour>
  </outline>
</glyph>
<glyph name="endash" format="1">
  <advance width="900"/>
  <unicode hex="2013"/>
  <outline>
    <contour>
      <point x="30" y="347" type="line"/>
      <point x="30" y="150" type="line"/>
      <point x="870" y="150" type="line"/>
      <point x="870" y="347" type="line"/>
    </contour>
  </outline>
</glyph>
<glyph name="emdash" format="1">
  <advance width="1800"/>
  <unicode hex="2014"/>
  <outline>
    <contour>
      <point x="21" y="347" type="line"/>
      <point x="21" y="150" type="line"/>
      <point x="1770" y="150" type="line"/>
      <point x="1770" y="347" type="line"/>
    </contour>
  </outline>
</glyph>
<glyph name="bullet" format="1">
  <advance width="670"/>
  <unicode hex="2022"/>
  <outline>
    <contour>
      <point x="335" y="526" type="line"/>
      <point x="233" y="526"/>
      <point x="150" y="443"/>
      <point x="150" y="341" type="curve" smooth="yes"/>
      <point x="150" y="239"/>
      <point x="233" y="156"/>
      <point x="335" y="156" type="curve" smooth="yes"/>
      <point x="437" y="156"/>
      <point x="520" y="239"/>
      <point x="520" y="341" type="curve" smooth="yes"/>
      <point x="520" y="443"/>
      <point x="437" y="526"/>
      <point x="336" y="526" type="curve"/>
    </contour>
  </outline>
</glyph>
<glyph name="trademark" format="1">
  <advance width="1660"/>
  <unicode hex="2122"/>
  <outline>
    <contour>
      <point x="574" y="709" type="line"/>
      <point x="68" y="709" type="line"/>
      <point x="68" y="599" type="line"/>
      <point x="238" y="599" type="line"/>
      <point x="238" y="355" type="line"/>
      <point x="404" y="355" type="line"/>
      <point x="404" y="599" type="line"/>
      <point x="574" y="599" type="line"/>
    </contour>
    <contour>
      <point x="1060" y="474" type="line"/>
      <point x="1036" y="522"/>
      <point x="1011" y="559"/>
      <point x="986" y="597" type="curve" smooth="yes"/>
      <point x="913" y="709" type="line"/>
      <point x="632" y="709" type="line"/>
      <point x="632" y="355" type="line"/>
      <point x="797" y="355" type="line"/>
      <point x="797" y="488" type="line" smooth="yes"/>
      <point x="797" y="535"/>
      <point x="797" y="583"/>
      <point x="794" y="636" type="curve"/>
      <point x="796" y="636" type="line"/>
      <point x="829" y="583"/>
      <point x="859" y="536"/>
      <point x="889" y="488" type="curve" smooth="yes"/>
      <point x="974" y="355" type="line"/>
      <point x="1148" y="355" type="line"/>
      <point x="1232" y="488" type="line" smooth="yes"/>
      <point x="1262" y="535"/>
      <point x="1292" y="583"/>
      <point x="1325" y="636" type="curve"/>
      <point x="1328" y="636" type="line"/>
      <point x="1325" y="583"/>
      <point x="1325" y="536"/>
      <point x="1325" y="488" type="curve" smooth="yes"/>
      <point x="1325" y="355" type="line"/>
      <point x="1490" y="355" type="line"/>
      <point x="1490" y="709" type="line"/>
      <point x="1209" y="709" type="line"/>
      <point x="1136" y="597" type="line" smooth="yes"/>
      <point x="1112" y="560"/>
      <point x="1088" y="522"/>
      <point x="1063" y="474" type="curve"/>
    </contour>
  </outline>
</glyph>
<glyph name="fi" format="1">
  <advance width="1212"/>
  <unicode hex="FB01"/>
  <outline>
    <contour>
      <point x="758.0" y="711.0" type="line"/>
      <point x="725.0" y="721.0"/>
      <point x="688.0" y="728.0"/>
      <point x="653.0" y="732.0" type="curve" smooth="yes"/>
      <point x="606.0" y="738.0"/>
      <point x="562.0" y="739.0"/>
      <point x="527.0" y="739.0" type="curve" smooth="yes"/>
      <point x="400.0" y="739.0"/>
      <point x="320.0" y="718.0"/>
      <point x="270.0" y="682.0" type="curve" smooth="yes"/>
      <point x="232.0" y="654.0"/>
      <point x="212.0" y="610.0"/>
      <point x="212.0" y="543.0" type="curve" smooth="yes"/>
      <point x="212.0" y="532.0" type="line"/>
      <point x="108.0" y="532.0" type="line"/>
      <point x="108.0" y="377.0" type="line"/>
      <point x="212.0" y="377.0" type="line"/>
      <point x="212.0" y="0.0" type="line"/>
      <point x="492.0" y="0.0" type="line"/>
      <point x="492.0" y="377.0" type="line"/>
      <point x="908" y="377" type="line"/>
      <point x="908" y="532" type="line"/>
      <point x="492.0" y="532.0" type="line"/>
      <point x="492.0" y="533.0" type="line" smooth="yes"/>
      <point x="492.0" y="544.0"/>
      <point x="498.0" y="558.0"/>
      <point x="511.0" y="569.0" type="curve" smooth="yes"/>
      <point x="524.0" y="580.0"/>
      <point x="544.0" y="588.0"/>
      <point x="574.0" y="588.0" type="curve" smooth="yes"/>
      <point x="599.0" y="588.0"/>
      <point x="627.0" y="583.0"/>
      <point x="646.0" y="576.0" type="curve" smooth="yes"/>
      <point x="665.0" y="570.0"/>
      <point x="681.0" y="560.0"/>
      <point x="692.0" y="551.0" type="curve"/>
    </contour>
    <contour>
      <point x="1107.0" y="633.0" type="line"/>
      <point x="1107.0" y="739.0" type="line"/>
      <point x="827.0" y="739.0" type="line"/>
      <point x="827.0" y="633.0" type="line"/>
    </contour>
    <contour>
      <point x="1107.0" y="532.0" type="line"/>
      <point x="827.0" y="532.0" type="line"/>
      <point x="827.0" y="0.0" type="line"/>
      <point x="1107.0" y="0.0" type="line"/>
    </contour>
  </outline>
</glyph>
